<svg aria-hidden="true" style="position:absolute;width:0;height:0;overflow:hidden" xmlns="http://www.w3.org/2000/svg">
   <defs>
    <symbol id="icon-logo" viewBox="0 0 34 32">
      <path fill="#1d3fe7" style="fill: var(--color1, #1d3fe7)" d="M0 0h34.286v32h-34.286v-32z"></path>
      <path fill="#fdda05" style="fill: var(--color2, #fdda05)" d="M9.306 18.619c0.024-0 0.048-0.001 0.073-0.001 0.136-0 0.245 0.005 0.364 0.070 0.125 0.121 0.154 0.207 0.171 0.373 0.002 0.023 0.005 0.045 0.007 0.069 0.008 0.082 0.016 0.164 0.023 0.246 0.003 0.033 0.006 0.066 0.009 0.1 0.024 0.258 0.046 0.516 0.067 0.774 0.005 0.066 0.011 0.132 0.016 0.198 0.046 0.555 0.091 1.111 0.129 1.666 0.004 0.061 0.008 0.122 0.013 0.182 0.023 0.318 0.038 0.636 0.042 0.954 0.001 0.029 0.001 0.058 0.002 0.088 0.001 0.152-0.003 0.257-0.111 0.38-0.3 0.173-0.762 0.161-1.107 0.168-0.024 0.001-0.047 0.002-0.071 0.002-0.171 0-0.271-0.030-0.396-0.139-0.119-0.205-0.125-0.444-0.14-0.672-0.003-0.037-0.005-0.074-0.008-0.113-0.030-0.467-0.025-0.935-0.019-1.403-0.022 0-0.044 0-0.067 0-0.006 0.034-0.006 0.034-0.012 0.069-0.022 0.088-0.052 0.15-0.099 0.228-0.016 0.027-0.032 0.054-0.048 0.082s-0.035 0.058-0.052 0.087c-0.037 0.061-0.073 0.123-0.11 0.185-0.019 0.032-0.038 0.063-0.057 0.096-0.056 0.095-0.111 0.191-0.166 0.287-0.018 0.031-0.035 0.061-0.053 0.093-0.033 0.058-0.067 0.117-0.1 0.175-0.229 0.397-0.229 0.397-0.403 0.476-0.078 0.017-0.128 0.020-0.206 0.003-0.192-0.12-0.337-0.288-0.473-0.461-0.018-0.023-0.036-0.045-0.055-0.068-0.059-0.073-0.117-0.147-0.175-0.221-0.021-0.026-0.042-0.053-0.063-0.080-0.083-0.105-0.166-0.21-0.249-0.316-0.094-0.12-0.189-0.239-0.29-0.354 0.013 0.275 0.042 0.544 0.084 0.816 0.037 0.248 0.072 0.495 0.084 0.746 0.001 0.022 0.003 0.043 0.004 0.065 0.004 0.071 0.006 0.143 0.009 0.214 0.001 0.022 0.003 0.044 0.004 0.067 0.002 0.121-0.017 0.186-0.085 0.291-0.116 0.095-0.21 0.12-0.359 0.138-0.024 0.003-0.048 0.007-0.073 0.011-0.068 0.010-0.135 0.018-0.203 0.027-0.027 0.004-0.053 0.008-0.081 0.012-0.175 0.024-0.354 0.025-0.53 0.029-0.026 0.001-0.052 0.002-0.079 0.003-0.127 0.001-0.198-0.005-0.311-0.064-0.131-0.139-0.147-0.306-0.169-0.485-0.003-0.022-0.005-0.043-0.008-0.066-0.006-0.046-0.011-0.093-0.016-0.139-0.008-0.067-0.016-0.134-0.024-0.201-0.093-0.772-0.167-1.546-0.233-2.32-0.007-0.085-0.015-0.171-0.022-0.256-0.072-0.818-0.072-0.818-0.079-1.124-0.001-0.036-0.002-0.071-0.003-0.108 0.027-0.158 0.113-0.254 0.244-0.353 0.115-0.058 0.209-0.083 0.337-0.105 0.032-0.006 0.032-0.006 0.065-0.011 0.981-0.162 0.981-0.162 1.253-0.049 0.298 0.259 0.527 0.568 0.765 0.874 0.106 0.136 0.212 0.27 0.319 0.405 0.019 0.025 0.039 0.049 0.059 0.075 0.151 0.219 0.151 0.219 0.356 0.382 0.009-0.022 0.018-0.043 0.027-0.066 0.044-0.099 0.096-0.193 0.15-0.288 0.011-0.019 0.021-0.038 0.032-0.057 0.035-0.061 0.070-0.122 0.105-0.183 0.012-0.021 0.024-0.042 0.036-0.063 0.156-0.273 0.314-0.544 0.477-0.814 0.016-0.026 0.031-0.053 0.047-0.080 0.085-0.14 0.17-0.248 0.298-0.356 0.019-0.017 0.039-0.035 0.059-0.053 0.304-0.166 0.736-0.137 1.078-0.141z"></path>
      <path fill="#fdda05" style="fill: var(--color2, #fdda05)" d="M13.271 18.801c0.030-0 0.060-0.001 0.090-0.001 0.168 0.001 0.293 0.012 0.433 0.107 0.13 0.161 0.215 0.34 0.293 0.527 0.017 0.040 0.017 0.040 0.035 0.081 0.038 0.088 0.075 0.175 0.112 0.263 0.026 0.062 0.053 0.124 0.079 0.187 0.267 0.629 0.525 1.262 0.78 1.896 0.066 0.165 0.133 0.329 0.2 0.493 0.036 0.087 0.071 0.175 0.107 0.262 0.023 0.056 0.046 0.113 0.070 0.169 0.078 0.195 0.122 0.351 0.098 0.56-0.102 0.132-0.2 0.183-0.368 0.219-0.242 0.030-0.484 0.040-0.728 0.043-0.050 0.002-0.050 0.002-0.102 0.004-0.274 0.003-0.274 0.003-0.392-0.078-0.1-0.111-0.148-0.211-0.197-0.347-0.009-0.022-0.017-0.045-0.026-0.068-0.036-0.094-0.062-0.172-0.062-0.272-0.037 0.005-0.075 0.010-0.114 0.015-0.16 0.019-0.32 0.027-0.481 0.034-0.029 0.001-0.058 0.003-0.088 0.004-0.219 0.009-0.437 0.013-0.656 0.010-0.004 0.023-0.007 0.047-0.011 0.071-0.092 0.555-0.092 0.555-0.21 0.668-0.248 0.13-0.526 0.116-0.803 0.116-0.071 0-0.142 0.001-0.213 0.002-0.046 0-0.091 0-0.137 0-0.041 0-0.082 0-0.124 0.001-0.132-0.018-0.188-0.048-0.277-0.14-0.053-0.214 0.015-0.454 0.069-0.664 0.011-0.045 0.011-0.045 0.022-0.091 0.016-0.066 0.033-0.132 0.049-0.199 0.029-0.118 0.057-0.235 0.086-0.353 0.098-0.409 0.196-0.818 0.31-1.224 0.008-0.027 0.015-0.054 0.023-0.082 0.035-0.124 0.069-0.248 0.104-0.372 0.048-0.171 0.094-0.342 0.139-0.513 0.058-0.217 0.121-0.433 0.186-0.648 0.010-0.032 0.019-0.065 0.029-0.099 0.064-0.209 0.123-0.349 0.323-0.474 0.086-0.016 0.086-0.016 0.189-0.027 0.038-0.004 0.076-0.008 0.116-0.012 0.061-0.006 0.061-0.006 0.124-0.012s0.063-0.006 0.127-0.012c0.265-0.024 0.529-0.041 0.796-0.042z"></path>
      <path fill="#fdda05" style="fill: var(--color2, #fdda05)" d="M24.777 19.094c0.055 0.041 0.055 0.041 0.1 0.094 0.011 0.094 0.014 0.181 0.013 0.275-0 0.028-0 0.056-0.001 0.085-0.008 0.413-0.064 0.823-0.112 1.234 0.464 0.015 0.464 0.015 0.938 0.031 0.006-0.11 0.006-0.11 0.013-0.223 0.014-0.222 0.031-0.444 0.050-0.666 0.003-0.042 0.003-0.042 0.007-0.085 0.044-0.477 0.044-0.477 0.22-0.639 0.142-0.055 0.255-0.061 0.408-0.058 0.028 0 0.055 0.001 0.084 0.001 0.193 0.005 0.383 0.022 0.573 0.049 0.024 0.003 0.047 0.006 0.071 0.010 0.117 0.020 0.178 0.043 0.264 0.121 0.11 0.173 0.051 0.379 0.022 0.569-0.039 0.267-0.066 0.535-0.093 0.803-0.040 0.4-0.082 0.798-0.139 1.196-0.029 0.207-0.051 0.415-0.072 0.623-0.003 0.029-0.006 0.059-0.009 0.089-0.015 0.148-0.029 0.296-0.043 0.445-0.005 0.055-0.011 0.11-0.016 0.165-0.002 0.025-0.005 0.050-0.007 0.076-0.039 0.395-0.039 0.395-0.143 0.52-0.154 0.102-0.342 0.070-0.524 0.070-0.067 0-0.134 0.001-0.201 0.001-0.043 0-0.086 0-0.13 0-0.039 0-0.078 0-0.118 0-0.15-0.010-0.294-0.029-0.413-0.118-0.057-0.121-0.049-0.237-0.047-0.368 0-0.029 0.001-0.057 0.001-0.086 0.015-0.798 0.015-0.798 0.11-1.123-0.028 0-0.057 0.001-0.086 0.001-0.286 0.002-0.566-0.010-0.852-0.032 0.001 0.024 0.002 0.049 0.002 0.074 0.005 0.273-0.009 0.544-0.030 0.817-0.002 0.035-0.005 0.070-0.007 0.106-0.028 0.35-0.028 0.35-0.133 0.503-0.19 0.113-0.376 0.107-0.596 0.104-0.047 0-0.047 0-0.095 0-0.557-0.004-0.557-0.004-0.749-0.166-0.124-0.348-0.013-0.826 0.015-1.186 0.005-0.067 0.010-0.133 0.015-0.2 0.011-0.139 0.021-0.278 0.032-0.417 0.014-0.176 0.027-0.352 0.041-0.529 0.011-0.137 0.021-0.275 0.032-0.412 0.005-0.065 0.010-0.13 0.015-0.195 0.025-0.329 0.052-0.657 0.083-0.985 0.002-0.027 0.005-0.054 0.007-0.082 0.017-0.174 0.034-0.334 0.159-0.473 0.275-0.21 1.019-0.106 1.341-0.021z"></path>
      <path fill="#fdda05" style="fill: var(--color2, #fdda05)" d="M28.362 19.273c0.027-0 0.055-0 0.083-0 0.030 0 0.059 0.001 0.090 0.001s0.062 0 0.094 0c0.325 0.004 0.648 0.027 0.971 0.055 0.098 0.008 0.195 0.016 0.293 0.024 0.323 0.026 0.645 0.059 0.966 0.1 0.029 0.004 0.059 0.007 0.089 0.011 0.027 0.004 0.055 0.007 0.083 0.011 0.024 0.003 0.048 0.006 0.072 0.010 0.135 0.029 0.191 0.062 0.268 0.171 0.032 0.227-0.007 0.46-0.042 0.686-0.004 0.026-0.007 0.051-0.011 0.077-0.026 0.153-0.060 0.249-0.181 0.362-0.294 0.137-0.832 0.003-1.149-0.031-0.058-0.006-0.115-0.012-0.173-0.018-0.14-0.015-0.279-0.029-0.419-0.044-0.011 0.165-0.022 0.33-0.034 0.5 0.047-0.001 0.094-0.003 0.142-0.004 0.191 0 0.379 0.013 0.569 0.029 0.043 0.003 0.043 0.003 0.086 0.007 0.177 0.016 0.319 0.043 0.474 0.124 0.114 0.139 0.080 0.334 0.067 0.5-0.058 0.358-0.058 0.358-0.152 0.464-0.128 0.056-0.249 0.048-0.388 0.046-0.044-0-0.044-0-0.089-0.001-0.295-0.005-0.586-0.035-0.878-0.072 0 0.019 0 0.038 0.001 0.057 0 0.025 0 0.050 0 0.076 0 0.025 0 0.049 0.001 0.075-0.002 0.1-0.017 0.194-0.035 0.293 0.023-0 0.045-0.001 0.069-0.001 0.27-0.003 0.536 0.013 0.804 0.036 0.071 0.006 0.141 0.012 0.212 0.017 0.242 0.020 0.465 0.044 0.689 0.135 0.173 0.243 0.054 0.645 0.002 0.919-0.038 0.12-0.087 0.201-0.169 0.3-0.517 0.242-1.681-0.041-2.228-0.111-0.177-0.021-0.354-0.036-0.532-0.049-0.16-0.014-0.281-0.039-0.42-0.121-0.203-0.284-0.028-0.852 0.010-1.178 0.008-0.067 0.016-0.133 0.023-0.2 0.042-0.358 0.085-0.716 0.133-1.074 0.032-0.241 0.058-0.482 0.084-0.724 0.017-0.15 0.033-0.299 0.050-0.449 0.004-0.035 0.008-0.070 0.012-0.107 0.011-0.099 0.024-0.197 0.036-0.296 0.003-0.029 0.006-0.058 0.010-0.088 0.024-0.178 0.066-0.3 0.176-0.447 0.102-0.064 0.122-0.070 0.237-0.071z"></path>
      <path fill="#fdda05" style="fill: var(--color2, #fdda05)" d="M22.567 19.25c0.385 0.279 0.385 0.279 0.421 0.484-0.009 0.299-0.325 0.58-0.521 0.797-0.027 0.032-0.054 0.064-0.082 0.098-0.106 0.073-0.172 0.084-0.302 0.078-0.143-0.033-0.254-0.109-0.374-0.188-0.199-0.127-0.452-0.105-0.682-0.082-0.26 0.087-0.414 0.241-0.534 0.466-0.116 0.264-0.117 0.593-0.018 0.862 0.096 0.19 0.25 0.313 0.45 0.404 0.307 0.053 0.58 0.006 0.847-0.152 0.034-0.022 0.034-0.022 0.068-0.044 0.093-0.056 0.128-0.069 0.243-0.080 0.316 0.116 0.497 0.469 0.659 0.732 0.032 0.070 0.039 0.122 0.040 0.198 0.001 0.023 0.002 0.046 0.003 0.069-0.047 0.231-0.26 0.352-0.45 0.48-0.509 0.322-1.136 0.414-1.737 0.314-0.613-0.137-1.133-0.488-1.465-0.986-0.348-0.577-0.423-1.307-0.246-1.947 0.224-0.67 0.609-1.267 1.286-1.61 0.2-0.097 0.399-0.167 0.622-0.207 0.031-0.006 0.062-0.011 0.094-0.017 0.596-0.079 1.17 0.032 1.68 0.33z"></path>
      <path fill="#fdda05" style="fill: var(--color2, #fdda05)" d="M16.159 18.779c0.352-0.004 0.704-0.005 1.056-0.006 0.156-0 0.312-0.001 0.467-0.002 0.121-0.001 0.242-0.001 0.364-0.001 0.058-0 0.115-0 0.172-0.001 0.080-0.001 0.16-0 0.239-0 0.035-0 0.035-0 0.071-0.001 0.154 0.001 0.259 0.029 0.389 0.106 0.125 0.186 0.116 0.375 0.113 0.59 0 0.032 0.001 0.065 0.001 0.098-0.001 0.214-0.010 0.441-0.16 0.614-0.119 0.089-0.26 0.076-0.407 0.075-0.063-0-0.063-0-0.127-0-0.065-0-0.065-0-0.132-0.001-0.044-0-0.088-0-0.134-0-0.109-0-0.218-0.001-0.327-0.002 0 0.056 0 0.056 0.001 0.114 0.002 0.355 0.004 0.709 0.005 1.064 0.001 0.182 0.001 0.364 0.002 0.547 0.001 0.176 0.002 0.352 0.002 0.528 0 0.067 0.001 0.134 0.001 0.201 0.001 0.094 0.001 0.188 0.001 0.282 0 0.028 0.001 0.056 0.001 0.084-0.001 0.148-0.008 0.249-0.113 0.368-0.209 0.13-0.457 0.101-0.7 0.101-0.070 0-0.139 0.001-0.208 0.002-0.044 0-0.088 0-0.133 0-0.040 0-0.080 0.001-0.122 0.001-0.127-0.013-0.183-0.022-0.276-0.105-0.067-0.199-0.076-0.402-0.075-0.609 0-0.028 0-0.056 0-0.084 0-0.091 0.001-0.181 0.001-0.272 0-0.063 0-0.127 0-0.19 0-0.166 0.001-0.331 0.002-0.497 0.001-0.169 0.001-0.339 0.001-0.508 0.001-0.332 0.002-0.664 0.003-0.996-0.042 0.005-0.084 0.010-0.128 0.015-0.177 0.021-0.351 0.024-0.529 0.026-0.034 0.001-0.068 0.002-0.102 0.003-0.152 0.001-0.258-0.004-0.398-0.062-0.18-0.168-0.157-0.38-0.159-0.604 0-0.038 0-0.075 0-0.114-0.001-0.038-0.001-0.075-0.002-0.114 0-0.037-0-0.073-0-0.111-0-0.033-0-0.066-0-0.1 0.015-0.116 0.043-0.185 0.113-0.283 0.188-0.134 0.349-0.145 0.58-0.148 0.036-0.001 0.071-0.002 0.108-0.003 0.179-0.004 0.358-0.005 0.538-0.008z"></path>
      <path fill="#32a8eb" style="fill: var(--color3, #32a8eb)" d="M8.563 24.303c0.037-0 0.074-0.001 0.113-0.002 0.054 0 0.054 0 0.109-0 0.032-0 0.065-0 0.098-0 0.108 0.014 0.171 0.046 0.258 0.105 0.109 0.193 0.11 0.411 0.124 0.624 0.003 0.045 0.003 0.045 0.006 0.092 0.007 0.097 0.013 0.193 0.020 0.29s0.013 0.192 0.020 0.288c0.004 0.060 0.008 0.119 0.012 0.179 0.009 0.135 0.020 0.27 0.035 0.404 0.017 0.151 0.027 0.302 0.034 0.454 0.001 0.028 0.003 0.055 0.004 0.084 0.017 0.331 0.031 0.661 0.045 0.992 0.002 0.038 0.002 0.038 0.003 0.077 0.006 0.151 0.011 0.301 0.014 0.452 0.001 0.037 0.003 0.073 0.004 0.111 0.002 0.238 0.002 0.238-0.102 0.364-0.241 0.143-0.559 0.133-0.834 0.135-0.032 0.001-0.064 0.002-0.098 0.003-0.15 0.001-0.235-0.001-0.362-0.080-0.142-0.202-0.144-0.433-0.152-0.668-0.001-0.031-0.003-0.061-0.004-0.093-0.004-0.097-0.008-0.194-0.012-0.292-0.005-0.128-0.010-0.256-0.016-0.383-0.001-0.030-0.003-0.061-0.004-0.092-0.009-0.22-0.024-0.44-0.045-0.66-0.027 0.064-0.054 0.127-0.082 0.191-0.024 0.056-0.048 0.112-0.072 0.168-0.062 0.144-0.123 0.288-0.183 0.432-0.362 0.863-0.362 0.863-0.534 0.991-0.094 0.029-0.163 0.039-0.262 0.043-0.028 0.002-0.056 0.003-0.084 0.005-0.22-0.040-0.347-0.233-0.466-0.395-0.016-0.022-0.033-0.044-0.050-0.067-0.265-0.358-0.521-0.722-0.779-1.085 0.003 0.019 0.007 0.038 0.010 0.058 0.034 0.199 0.069 0.397 0.103 0.596 0.013 0.074 0.026 0.148 0.038 0.222 0.018 0.107 0.037 0.213 0.055 0.32 0.006 0.033 0.011 0.066 0.017 0.1 0.081 0.471 0.081 0.471 0.091 0.665 0.002 0.022 0.003 0.045 0.005 0.068-0.018 0.065-0.018 0.065-0.077 0.131-0.163 0.088-0.331 0.104-0.516 0.129-0.036 0.005-0.073 0.011-0.11 0.016-0.495 0.070-0.495 0.070-0.654 0.038-0.311-0.232-0.301-0.815-0.36-1.16-0.009-0.050-0.009-0.050-0.017-0.1-0.091-0.526-0.176-1.054-0.257-1.582-0.005-0.033-0.010-0.065-0.015-0.099-0.014-0.093-0.028-0.186-0.042-0.279-0.004-0.027-0.008-0.054-0.012-0.082-0.039-0.261-0.071-0.523-0.077-0.786-0.001-0.039-0.002-0.078-0.004-0.118 0.017-0.127 0.050-0.175 0.148-0.263 0.31-0.171 0.678-0.193 1.030-0.199 0.027-0.001 0.054-0.002 0.082-0.002 0.213-0.001 0.358 0.044 0.511 0.184 0.049 0.052 0.095 0.105 0.14 0.16 0.026 0.031 0.026 0.031 0.052 0.062 0.212 0.257 0.405 0.526 0.597 0.796 0.043 0.060 0.086 0.12 0.129 0.18 0.099 0.138 0.197 0.276 0.296 0.414 0.037 0.052 0.074 0.104 0.111 0.155 0.010-0.025 0.021-0.050 0.032-0.075 0.812-1.928 0.812-1.928 1.207-2.144 0.235-0.077 0.482-0.073 0.728-0.072z"></path>
      <path fill="#32a8ea" style="fill: var(--color4, #32a8ea)" d="M14.833 24.125c0.031 0.009 0.061 0.018 0.093 0.027 0.196 0.066 0.352 0.158 0.51 0.285 0.020 0.016 0.041 0.031 0.062 0.047 0.285 0.239 0.427 0.582 0.447 0.933 0.009 0.426-0.1 0.789-0.408 1.113-0.205 0.188-0.205 0.188-0.301 0.188 0.267 0.415 0.522 0.786 0.954 1.066 0.084 0.059 0.084 0.059 0.151 0.152-0.004 0.149-0.093 0.242-0.201 0.344-0.073 0.054-0.15 0.101-0.23 0.146-0.030 0.018-0.030 0.018-0.059 0.036-0.289 0.17-0.539 0.235-0.882 0.193-0.311-0.103-0.448-0.455-0.581-0.713-0.133-0.261-0.133-0.261-0.194-0.386-0.015-0.030-0.030-0.060-0.045-0.090-0.013-0.027-0.026-0.053-0.039-0.081-0.050-0.082-0.101-0.138-0.179-0.198-0.122-0.025-0.122-0.025-0.234-0.031 0.002 0.022 0.004 0.043 0.006 0.066 0.067 0.729 0.067 0.729 0.073 1.073 0.001 0.023 0.002 0.046 0.003 0.069 0 0.097-0.001 0.152-0.071 0.226-0.259 0.115-0.584 0.105-0.867 0.111-0.029 0.001-0.058 0.002-0.088 0.003-0.041 0-0.041 0-0.084 0-0.037 0.001-0.037 0.001-0.075 0.001-0.11-0.030-0.144-0.085-0.204-0.175-0.025-0.101-0.025-0.101-0.036-0.224-0.002-0.024-0.005-0.047-0.007-0.072-0.009-0.089-0.016-0.177-0.023-0.266-0.005-0.056-0.005-0.056-0.010-0.113-0.023-0.269-0.044-0.539-0.065-0.808-0.009-0.119-0.018-0.238-0.028-0.357-0.042-0.527-0.078-1.054-0.096-1.583-0.002-0.067-0.005-0.135-0.008-0.202-0.004-0.092-0.006-0.183-0.007-0.275-0.001-0.030-0.002-0.059-0.004-0.090-0.003-0.206-0.003-0.206 0.085-0.308 0.117-0.054 0.228-0.079 0.356-0.096 0.025-0.004 0.050-0.007 0.076-0.011 0.079-0.011 0.157-0.022 0.236-0.032 0.023-0.003 0.047-0.007 0.071-0.010 0.611-0.086 1.31-0.139 1.905 0.041z"></path>
      <path fill="#31a8ea" style="fill: var(--color5, #31a8ea)" d="M18.64 23.963c0.067-0 0.135-0.001 0.202-0.001 0.553-0.001 0.553-0.001 0.712 0.070 0.129 0.123 0.195 0.228 0.253 0.394 0.007 0.020 0.014 0.040 0.021 0.060 0.023 0.065 0.045 0.13 0.067 0.195 0.016 0.046 0.032 0.091 0.048 0.137 0.191 0.55 0.368 1.104 0.53 1.662 0.049 0.17 0.102 0.338 0.156 0.507 0.019 0.061 0.039 0.123 0.058 0.184 0.030 0.095 0.060 0.19 0.090 0.285 0.030 0.093 0.059 0.186 0.088 0.279 0.009 0.028 0.018 0.056 0.027 0.085 0.060 0.192 0.106 0.387 0.101 0.588-0.065 0.103-0.114 0.141-0.237 0.175-0.226 0.043-0.445 0.056-0.676 0.057-0.035 0.001-0.070 0.002-0.106 0.003-0.286 0.002-0.286 0.002-0.407-0.083-0.087-0.096-0.123-0.166-0.158-0.287-0.015-0.050-0.015-0.050-0.031-0.101-0.028-0.118-0.043-0.238-0.059-0.358-0.431 0-0.862 0-1.306 0-0.044 0.165-0.088 0.33-0.134 0.5-0.119 0.222-0.119 0.222-0.268 0.281-0.098 0.012-0.098 0.012-0.205 0.011-0.039 0-0.078 0-0.118-0s-0.081-0.001-0.123-0.002c-0.040 0-0.080 0-0.122 0-0.211-0.001-0.404-0.006-0.605-0.073-0.099-0.138-0.064-0.247-0.034-0.406 0.032-0.117 0.073-0.231 0.115-0.346 0.025-0.070 0.050-0.14 0.074-0.21 0.013-0.037 0.026-0.074 0.039-0.112 0.052-0.151 0.1-0.303 0.149-0.456 0.161-0.508 0.337-1.012 0.516-1.515 0.012-0.034 0.024-0.068 0.037-0.103 0.079-0.222 0.159-0.444 0.242-0.665 0.010-0.028 0.021-0.056 0.032-0.085 0.029-0.078 0.060-0.156 0.090-0.234 0.008-0.023 0.017-0.045 0.026-0.068 0.064-0.157 0.136-0.238 0.288-0.331 0.202-0.051 0.418-0.037 0.627-0.037z"></path>
      <path fill="#31a8ea" style="fill: var(--color5, #31a8ea)" d="M29.712 24.563c0.035 0.003 0.070 0.007 0.105 0.010 0.073 0.007 0.146 0.014 0.219 0.021 0.11 0.011 0.22 0.021 0.33 0.032 0.202 0.019 0.403 0.040 0.605 0.061 0.039 0.004 0.039 0.004 0.079 0.008 0.066 0.007 0.131 0.015 0.197 0.022 0.034 0.004 0.068 0.008 0.103 0.012 0.153 0.034 0.237 0.086 0.324 0.207 0.007 0.23-0.033 0.463-0.075 0.689-0.007 0.038-0.014 0.076-0.021 0.114-0.047 0.128-0.084 0.182-0.205 0.259-0.113 0.018-0.221 0.010-0.335 0-0.037-0.003-0.074-0.006-0.112-0.009-0.123-0.011-0.245-0.023-0.367-0.036-0.042-0.004-0.084-0.008-0.127-0.013-0.334-0.034-0.334-0.034-0.499-0.067-0.003 0.038-0.003 0.038-0.006 0.078-0.003 0.034-0.006 0.067-0.009 0.102-0.003 0.033-0.005 0.067-0.008 0.101-0.009 0.077-0.023 0.145-0.044 0.219 0.041 0.002 0.082 0.003 0.125 0.005 0.925 0.038 0.925 0.038 1.114 0.214 0.018 0.287 0.031 0.592-0.128 0.848-0.331 0.182-0.886 0.018-1.245-0.035-0.011 0.165-0.022 0.33-0.034 0.5 0.123 0.005 0.123 0.005 0.249 0.010 0.267 0.013 0.533 0.036 0.799 0.064 0.036 0.004 0.072 0.007 0.11 0.011 0.034 0.004 0.068 0.008 0.104 0.011 0.046 0.005 0.046 0.005 0.092 0.010 0.111 0.024 0.206 0.068 0.287 0.144 0.022 0.357 0.042 0.805-0.222 1.090-0.213 0.094-0.532 0.026-0.761 0.004-0.054-0.005-0.054-0.005-0.109-0.010-0.076-0.007-0.152-0.014-0.228-0.021-0.114-0.011-0.228-0.021-0.342-0.031-0.338-0.031-0.675-0.063-1.011-0.108-0.026-0.003-0.051-0.006-0.078-0.009-0.155-0.022-0.259-0.053-0.364-0.165-0.019-0.093-0.019-0.093-0.015-0.203 0.001-0.031 0.001-0.031 0.002-0.062 0.010-0.25 0.044-0.498 0.077-0.746 0.020-0.148 0.039-0.295 0.058-0.443 0.004-0.030 0.008-0.060 0.012-0.091 0.039-0.301 0.072-0.602 0.105-0.903 0.038-0.344 0.079-0.687 0.132-1.029 0.022-0.143 0.038-0.285 0.048-0.43 0.014-0.174 0.063-0.282 0.182-0.418 0.249-0.123 0.613-0.046 0.886-0.019z"></path>
      <path fill="#32a8ea" style="fill: var(--color4, #32a8ea)" d="M24.464 24.474c0.153 0.111 0.31 0.227 0.38 0.401 0.033 0.286-0.198 0.525-0.379 0.738-0.172 0.195-0.172 0.195-0.251 0.213-0.216 0.011-0.33-0.055-0.496-0.179-0.182-0.124-0.361-0.146-0.581-0.116-0.297 0.096-0.436 0.243-0.575 0.498-0.125 0.289-0.102 0.676 0.026 0.959 0.1 0.159 0.238 0.258 0.413 0.338 0.253 0.043 0.47 0.024 0.705-0.076 0.034-0.023 0.068-0.045 0.103-0.068 0.109-0.063 0.175-0.082 0.301-0.074 0.26 0.069 0.44 0.498 0.567 0.705 0.048 0.090 0.044 0.15 0.034 0.25-0.174 0.306-0.439 0.458-0.77 0.594-0.041 0.017-0.041 0.017-0.084 0.035-0.502 0.167-1.157 0.085-1.628-0.119-0.56-0.277-0.946-0.74-1.143-1.299-0.185-0.639-0.136-1.364 0.176-1.961 0.34-0.551 0.805-0.941 1.463-1.129 0.594-0.13 1.239-0.032 1.739 0.291z"></path>
      <path fill="#31a8eb" style="fill: var(--color6, #31a8eb)" d="M25.733 24.304c0.036-0 0.072-0 0.109-0 0.056 0 0.056 0 0.113 0.001 0.037-0 0.074-0 0.111-0.001 0.524 0.001 0.524 0.001 0.676 0.113 0.075 0.090 0.059 0.2 0.058 0.309-0 0.028-0 0.056-0.001 0.085-0.010 0.429-0.069 0.856-0.119 1.282-0.034 0.289-0.065 0.578-0.096 0.867-0.012 0.11-0.023 0.219-0.035 0.329-0.011 0.102-0.022 0.203-0.032 0.305 0.034-0 0.068-0 0.103-0 0.275-0.001 0.55 0 0.826 0.010 0.032 0.001 0.063 0.001 0.096 0.002 0.046 0.002 0.046 0.002 0.092 0.003 0.027 0.001 0.054 0.002 0.081 0.002 0.093 0.017 0.14 0.047 0.208 0.107 0.104 0.291 0.053 0.741-0.034 1.031-0.106 0.143-0.106 0.143-0.201 0.188-0.703 0.035-1.41-0.038-2.109-0.094-0.037-0.003-0.073-0.006-0.111-0.009-0.045-0.004-0.045-0.004-0.090-0.008-0.036-0.003-0.036-0.003-0.073-0.006-0.095-0.014-0.156-0.044-0.228-0.103-0.087-0.146-0.070-0.282-0.060-0.443 0.002-0.030 0.003-0.059 0.005-0.090 0.027-0.438 0.062-0.876 0.097-1.314 0.007-0.095 0.015-0.189 0.022-0.284 0.036-0.462 0.073-0.924 0.115-1.385 0.018-0.196 0.031-0.391 0.040-0.587 0.018-0.101 0.049-0.16 0.115-0.241 0.107-0.064 0.194-0.070 0.32-0.071z"></path>
      <path fill="#32a8eb" style="fill: var(--color3, #32a8eb)" d="M11.35 24.25c0.086 0.12 0.083 0.225 0.089 0.364 0.002 0.042 0.002 0.042 0.005 0.084 0.005 0.092 0.010 0.184 0.015 0.276 0.004 0.065 0.007 0.129 0.011 0.194 0.009 0.171 0.018 0.342 0.028 0.512s0.018 0.341 0.028 0.512c0.035 0.633 0.069 1.267 0.093 1.901 0.001 0.025 0.002 0.050 0.003 0.076 0.014 0.365 0.014 0.365-0.056 0.479-0.205 0.176-0.492 0.145-0.755 0.146-0.059 0.002-0.059 0.002-0.118 0.003-0.285 0.002-0.285 0.002-0.421-0.088-0.082-0.119-0.096-0.221-0.107-0.361-0.002-0.030-0.005-0.061-0.007-0.092-0.002-0.033-0.005-0.066-0.007-0.1s-0.005-0.070-0.008-0.106c-0.009-0.116-0.017-0.232-0.026-0.348-0.006-0.081-0.012-0.162-0.018-0.242-0.012-0.17-0.025-0.339-0.037-0.509-0.014-0.195-0.029-0.39-0.043-0.586-0.014-0.189-0.028-0.377-0.042-0.566-0.006-0.080-0.012-0.16-0.018-0.239-0.008-0.112-0.016-0.224-0.024-0.336-0.002-0.033-0.005-0.065-0.007-0.099-0.048-0.677-0.048-0.677 0.050-0.803 0.123-0.088 0.217-0.114 0.368-0.135 0.059-0.010 0.059-0.010 0.119-0.020 0.637-0.064 0.637-0.064 0.885 0.082z"></path>
      <path fill="#fdda05" style="fill: var(--color2, #fdda05)" d="M20.993 13.5c0.344 0.148 0.546 0.51 0.722 0.805 0.021 0.034 0.042 0.068 0.063 0.103 0.063 0.103 0.125 0.207 0.186 0.311 0.011 0.019 0.022 0.037 0.034 0.057 0.033 0.056 0.066 0.112 0.099 0.168 0.029 0.050 0.029 0.050 0.059 0.101 0.043 0.080 0.043 0.080 0.043 0.143 0.021 0.004 0.043 0.007 0.064 0.011 1.702 0.284 1.702 0.284 2.011 0.552 0.092 0.14 0.087 0.278 0.067 0.438-0.071 0.233-0.271 0.414-0.435 0.594-0.030 0.033-0.059 0.066-0.089 0.099-0.172 0.193-0.349 0.381-0.533 0.564-0.152 0.152-0.154 0.234-0.152 0.437 0.004 0.104 0.021 0.204 0.037 0.306 0.036 0.236 0.036 0.236-0.048 0.342-0.061 0.052-0.111 0.094-0.187 0.127-0.109-0.011-0.201-0.059-0.299-0.104-0.207-0.089-0.418-0.154-0.638-0.209-0.022-0.006-0.044-0.011-0.067-0.017-0.206-0.048-0.403-0.055-0.615-0.053-0.048-0-0.048-0-0.098-0.001-0.322 0.001-0.626 0.052-0.932 0.143-0.034 0.010-0.034 0.010-0.069 0.020-0.158 0.048-0.297 0.108-0.436 0.195-0.060 0.026-0.060 0.026-0.129 0.022-0.084-0.035-0.111-0.075-0.161-0.146-0.145-0.189-0.332-0.293-0.573-0.35-0.134-0.016-0.267-0.025-0.402-0.031 0.006-0.032 0.012-0.065 0.018-0.098 0.041-0.254 0.041-0.254-0.039-0.492-0.079-0.078-0.162-0.15-0.247-0.222-0.051-0.056-0.102-0.114-0.151-0.172-0.098-0.114-0.199-0.223-0.305-0.33-0.243-0.25-0.475-0.503-0.464-0.855 0.031-0.154 0.121-0.236 0.251-0.33 0.335-0.157 0.705-0.218 1.069-0.287 0.083-0.016 0.167-0.032 0.25-0.048 0.051-0.010 0.103-0.020 0.154-0.030 0.26-0.037 0.26-0.037 0.462-0.175 0.016-0.029 0.033-0.058 0.050-0.089 0.028-0.049 0.028-0.049 0.057-0.098 0.029-0.052 0.029-0.052 0.059-0.105 0.041-0.072 0.083-0.143 0.124-0.214 0.020-0.035 0.040-0.070 0.061-0.106 0.604-1.032 0.604-1.032 1.129-0.973z"></path>
      <path fill="#288ae9" style="fill: var(--color7, #288ae9)" d="M25.118 13.236c0.045 0 0.045 0 0.091 0.001 0.535 0.009 0.535 0.009 0.673 0.138 0 0.107-0.005 0.187-0.081 0.271-0.018 0.017-0.037 0.034-0.055 0.052-0.090 0.090-0.115 0.15-0.119 0.273 0.011 0.146 0.048 0.232 0.155 0.342 0.213 0.166 0.381 0.2 0.659 0.198 0.198-0.019 0.314-0.102 0.446-0.236 0.073-0.192 0.051-0.373-0.034-0.557 0.008-0.086 0.008-0.086 0.034-0.156 0.183-0.085 0.426-0.021 0.615 0.023 0.025 0.006 0.049 0.011 0.075 0.017 0.477 0.111 0.477 0.111 0.582 0.21 0.017 0.248-0.037 0.472-0.096 0.713-0.066 0.272-0.126 0.543-0.172 0.818-0.15-0.021-0.274-0.056-0.414-0.111-0.177-0.065-0.301-0.104-0.49-0.076-0.248 0.102-0.354 0.327-0.45 0.551-0.116 0.299-0.245 0.637-0.127 0.955 0.063 0.093 0.133 0.146 0.243 0.182 0.121 0 0.241-0.003 0.362-0.011 0.132-0.004 0.192-0.003 0.291 0.081 0.066 0.113 0.072 0.211 0.050 0.335-0.059 0.147-0.145 0.238-0.268 0.344-0.067-0.031-0.067-0.031-0.117-0.145-0.1-0.192-0.285-0.309-0.497-0.383-0.075-0.018-0.146-0.028-0.223-0.035-0.036-0.004-0.036-0.004-0.073-0.008-0.264-0.014-0.522 0.067-0.729 0.221-0.107 0.094-0.171 0.196-0.236 0.318-0.060-0.009-0.12-0.018-0.18-0.027-0.050-0.008-0.050-0.008-0.101-0.015-0.087-0.020-0.087-0.020-0.154-0.082 0.010-0.052 0.022-0.104 0.034-0.156 0.005-0.053 0.008-0.107 0.010-0.16 0.001-0.026 0.003-0.053 0.004-0.080-0.008-0.075-0.008-0.075-0.067-0.126-0.107-0.052-0.204-0.063-0.324-0.077-0.063-0.007-0.063-0.007-0.128-0.015-0.032-0.003-0.065-0.007-0.098-0.010 0.015-0.022 0.031-0.044 0.047-0.066 0.3-0.427 0.3-0.427 0.301-0.922-0.099-0.226-0.249-0.338-0.481-0.442-0.19-0.072-0.389-0.113-0.589-0.156-0.084-0.019-0.169-0.037-0.253-0.056-0.037-0.008-0.074-0.016-0.112-0.024-0.085-0.021-0.085-0.021-0.118-0.052-0.030-0.268-0.013-0.5 0.167-0.719 0.122-0.105 0.227-0.151 0.391-0.172 0.204 0.029 0.305 0.131 0.446 0.266 0.105 0.049 0.186 0.042 0.301 0.031 0.159-0.115 0.2-0.226 0.226-0.406 0.004-0.023 0.008-0.047 0.012-0.071 0.029-0.177 0.042-0.353 0.043-0.531 0.063-0.268 0.285-0.264 0.529-0.255z"></path>
      <path fill="#ef42a3" style="fill: var(--color8, #ef42a3)" d="M29.304 14.532c0.149 0.076 0.26 0.199 0.328 0.343 0.020 0.129 0.029 0.203-0.040 0.316-0.074 0.093-0.154 0.178-0.24 0.262-0.076 0.11-0.082 0.201-0.054 0.328 0.072 0.111 0.139 0.172 0.268 0.219 0.112 0.010 0.112 0.010 0.232 0.008 0.040 0 0.081 0 0.122 0 0.11-0.008 0.183-0.028 0.282-0.071 0.093-0.020 0.14-0.015 0.223 0.030 0.112 0.093 0.143 0.169 0.163 0.308 0.013 0.282-0.002 0.616-0.201 0.844-0.051 0.037-0.051 0.037-0.13 0.035-0.105-0.035-0.172-0.087-0.255-0.154-0.105-0.049-0.185-0.042-0.301-0.031-0.126 0.067-0.215 0.155-0.268 0.281-0.023 0.161-0.041 0.348 0.056 0.49 0.12 0.112 0.294 0.097 0.454 0.1 0.093 0.003 0.093 0.003 0.126 0.035-0.014 0.184-0.060 0.34-0.132 0.512-0.009 0.022-0.018 0.044-0.027 0.067-0.067 0.163-0.067 0.163-0.143 0.233-0.338 0.030-0.693-0.011-1.032-0.031-0.053-0.003-0.106-0.006-0.159-0.009-0.128-0.007-0.256-0.015-0.383-0.022-0.005-0.020-0.011-0.039-0.016-0.059-0.012-0.038-0.012-0.038-0.024-0.077-0.007-0.025-0.015-0.051-0.022-0.077-0.033-0.073-0.033-0.073-0.111-0.107-0.11-0.027-0.209-0.033-0.323-0.036-0.043-0.001-0.087-0.002-0.131-0.004s-0.091-0.002-0.136-0.003c-0.046-0.001-0.092-0.002-0.138-0.004-0.112-0.003-0.225-0.006-0.337-0.008-0.069-0.117-0.069-0.117-0.047-0.191 0.083-0.138 0.16-0.232 0.299-0.325 0.159-0.109 0.259-0.213 0.318-0.391 0.025-0.176 0.045-0.365-0.061-0.521-0.101-0.102-0.101-0.102-0.238-0.14-0.036 0.002-0.036 0.002-0.072 0.003-0.039 0.001-0.039 0.001-0.080 0.002-0.055 0.002-0.11 0.005-0.165 0.007-0.2 0.005-0.2 0.005-0.306-0.061-0.101-0.147-0.073-0.31-0.035-0.475 0.078-0.288 0.179-0.644 0.455-0.815 0.212-0.024 0.361 0.041 0.548 0.123 0.204 0.089 0.395 0.164 0.624 0.158 0.146-0.047 0.146-0.047 0.234-0.156 0.001-0.052-0-0.104-0.003-0.157-0.001-0.031-0.002-0.063-0.003-0.095-0.002-0.066-0.005-0.132-0.008-0.198-0.006-0.27-0.006-0.27 0.092-0.382 0.242-0.203 0.504-0.222 0.799-0.105z"></path>
      <path fill="#f9d22a" style="fill: var(--color9, #f9d22a)" d="M14.263 2.25c0.526 0.349 0.785 0.906 0.91 1.476 0.025 0.105 0.056 0.204 0.095 0.306 0.023 0 0.045 0.001 0.069 0.001 1.481 0.033 2.858 0.352 4.083 1.155 0.036 0.023 0.072 0.046 0.11 0.070 0.494 0.335 0.955 0.769 1.297 1.242 0.024 0.032 0.024 0.032 0.048 0.065 0.44 0.61 0.755 1.267 0.975 1.973 0.094 0.303 0.195 0.529 0.417 0.774 0.507 0.605 0.742 1.271 0.657 2.039-0.125 0.917-0.669 1.672-1.326 2.336-0.022-0.022-0.044-0.044-0.067-0.066-0.195-0.181-0.398-0.337-0.68-0.352-0.209 0.005-0.358 0.082-0.513 0.209-0.026 0.028-0.052 0.055-0.080 0.084-0.015 0.016-0.031 0.031-0.046 0.048-0.122 0.128-0.217 0.259-0.307 0.407-0.015 0.022-0.029 0.045-0.044 0.068-0.085 0.132-0.152 0.26-0.209 0.405-0.094 0.217-0.192 0.435-0.432 0.539-0.334 0.115-0.691 0.164-1.042 0.214-0.323 0.048-0.655 0.136-0.899 0.35-0.115 0.149-0.197 0.312-0.181 0.498 0.082 0.382 0.361 0.665 0.627 0.951 0.028 0.030 0.028 0.030 0.056 0.060 0.090 0.097 0.182 0.192 0.279 0.283 0.026 0.025 0.026 0.025 0.052 0.051 0.047 0.046 0.095 0.090 0.143 0.135 0.084 0.109 0.062 0.212 0.049 0.341-0.004 0.040-0.007 0.079-0.011 0.12-0.005 0.045-0.005 0.045-0.009 0.092-0.033 0-0.067 0.001-0.101 0.001-0.316 0.003-0.631 0.006-0.947 0.010-0.162 0.002-0.325 0.003-0.487 0.005-0.157 0.002-0.314 0.003-0.471 0.005-0.059 0.001-0.119 0.001-0.178 0.002-0.91-0.017-0.91-0.017-1.7 0.353-0.091-0.040-0.157-0.080-0.239-0.139-0.26-0.175-0.555-0.188-0.866-0.184-0.056 0-0.056 0-0.113 0.001-0.274 0.004-0.548 0.016-0.822 0.034-0.035 0.002-0.070 0.004-0.106 0.007-0.412 0.031-0.795 0.112-1.074 0.417-0.229 0.31-0.327 0.722-0.429 1.082-0.011 0-0.022 0-0.034 0-0.002-0.027-0.005-0.054-0.007-0.082-0.009-0.101-0.019-0.202-0.028-0.303-0.004-0.044-0.008-0.087-0.012-0.131-0.032-0.37-0.108-0.676-0.388-0.953-0.459-0.355-1.092-0.27-1.645-0.225-0.028 0.002-0.056 0.004-0.085 0.007-0.466 0.043-0.79 0.193-1.092 0.529-0.050 0.056-0.102 0.107-0.158 0.158-0.157-0.181-0.268-0.368-0.362-0.582-0.010-0.022-0.019-0.044-0.029-0.067-0.12-0.282-0.217-0.594-0.12-0.895 0.081-0.165 0.186-0.267 0.37-0.333 0.387-0.104 0.764 0.005 1.139 0.1 0.195 0.049 0.391 0.095 0.587 0.141 0.069 0.016 0.138 0.033 0.207 0.049 0.343 0.082 0.692 0.161 1.049 0.153 0.033-0.001 0.067-0.001 0.101-0.002 0.024-0.001 0.048-0.001 0.073-0.002 0.034-0.095 0.034-0.095 0-0.188-0.095-0.012-0.187-0.021-0.283-0.027-0.327-0.028-0.638-0.086-0.956-0.16-0.047-0.011-0.047-0.011-0.096-0.022-0.103-0.024-0.207-0.048-0.31-0.072-0.034-0.008-0.069-0.016-0.104-0.024-0.148-0.035-0.296-0.070-0.444-0.109-0.365-0.097-0.788-0.173-1.147-0.019-0.222 0.125-0.357 0.303-0.433 0.535-0.040 0.329 0.036 0.613 0.123 0.93 0.011 0.042 0.022 0.083 0.034 0.125-0.016 0.009-0.032 0.018-0.048 0.028-0.21 0.141-0.245 0.304-0.287 0.535-0.033-0.027-0.066-0.054-0.1-0.082-0.045-0.035-0.089-0.070-0.134-0.105-0.021-0.016-0.042-0.033-0.063-0.050-0.127-0.095-0.225-0.144-0.382-0.183-0.112-0.040-0.148-0.062-0.2-0.165-0.239-0.944-0.026-2.152 0.512-2.978 0.138-0.183 0.295-0.351 0.536-0.406 0.537-0.068 0.962 0.151 1.428 0.365 0.188 0.084 0.375 0.144 0.576 0.195 0.242 0.062 0.458 0.143 0.682 0.248 1.218 0.566 2.576 0.716 3.92 0.699 0.091-0.001 0.181-0.001 0.272-0.002 0.218-0.001 0.437-0.003 0.655-0.006 0.011-0.062 0.022-0.124 0.034-0.188-0.044 0-0.087 0.001-0.132 0.002-2.005 0.021-4.257-0.070-5.794-1.439-0.031-0.025-0.031-0.025-0.062-0.051-0.3-0.256-0.512-0.624-0.641-0.98-0.011-0.030-0.021-0.059-0.032-0.089-0.14-0.464-0.104-0.964 0.036-1.422 0.051-0.199 0.025-0.365-0.018-0.561-0.186-0.882-0.171-1.872 0.081-2.74 0.012-0.043 0.012-0.043 0.025-0.087 0.236-0.79 0.664-1.498 1.214-2.132 0.022-0.026 0.022-0.026 0.045-0.052 0.444-0.509 0.952-0.919 1.529-1.292 0.034-0.024 0.068-0.048 0.103-0.073 0.115-0.061 0.152-0.059 0.278-0.028 0.254 0.051 0.5 0.045 0.758 0.039 0-0.052 0-0.103 0-0.156-0.028-0-0.055-0.001-0.084-0.001-0.417-0.016-0.911-0.092-1.222-0.374-0.149-0.168-0.235-0.329-0.218-0.551 0.052-0.222 0.221-0.388 0.419-0.512 0.402-0.199 0.845-0.212 1.279-0.096 0.039 0.011 0.078 0.022 0.119 0.034 0.104 0.029 0.203 0.050 0.31 0.062 0.011-0.010 0.022-0.021 0.033-0.031-0.012-0.129-0.040-0.238-0.086-0.359-0.083-0.253-0.113-0.556 0.021-0.797 0.047-0.065 0.047-0.065 0.098-0.125 0.016-0.019 0.032-0.039 0.049-0.059 0.554-0.584 1.439-0.419 2.060-0.035z"></path>
      <path fill="#df5812" style="fill: var(--color10, #df5812)" d="M17.434 10.252c0.399 0.199 0.748 0.343 1.2 0.396 0.212 0.029 0.349 0.094 0.496 0.245 0.098 0.132 0.115 0.263 0.090 0.42-0.060 0.16-0.129 0.282-0.268 0.393-0.092 0.041-0.167 0.065-0.268 0.076 0.002 0.035 0.003 0.070 0.004 0.105-0 0.159-0.035 0.305-0.076 0.459-0.011 0.043-0.011 0.043-0.023 0.087-0.194 0.716-0.567 1.268-1.245 1.661-0.026 0.015-0.051 0.030-0.078 0.046-0.649 0.34-1.493 0.408-2.21 0.251-0.266-0.082-0.515-0.201-0.76-0.328-0.033-0.017-0.066-0.034-0.1-0.052-0.338-0.187-0.627-0.438-0.856-0.736-0.099-0.119-0.099-0.119-0.245-0.173-0.068-0.003-0.137-0.004-0.205-0.004-0.189-0.008-0.352-0.091-0.492-0.208-0.135-0.142-0.157-0.261-0.153-0.448 0.024-0.176 0.112-0.304 0.26-0.413 0.112-0.072 0.229-0.132 0.347-0.193 0.365-0.196 0.597-0.492 0.841-0.805 0.473-0.59 1.083-1.089 1.889-1.211 0.693-0.061 1.252 0.132 1.851 0.432z"></path>
      <path fill="#f68021" style="fill: var(--color11, #f68021)" d="M15.965 10.047c0.029-0.001 0.059-0.002 0.089-0.003 0.442-0 0.832 0.184 1.21 0.378 0.431 0.22 0.832 0.393 1.325 0.453 0.131 0.017 0.191 0.029 0.306 0.096 0.078 0.127 0.091 0.23 0.056 0.373-0.058 0.096-0.127 0.169-0.234 0.219-0.308 0.021-0.576-0.013-0.87-0.094-0.331-0.084-0.331-0.084-0.67-0.125-0.037-0.002-0.073-0.005-0.111-0.007-1.046-0.036-1.976 0.477-2.772 1.062-0.422 0.305-0.893 0.523-1.437 0.476-0.143-0.039-0.239-0.093-0.335-0.199-0.043-0.105-0.057-0.158-0.034-0.27 0.133-0.214 0.338-0.309 0.567-0.418 0.311-0.153 0.497-0.42 0.706-0.676 0.451-0.552 0.957-1.080 1.719-1.235 0.162-0.020 0.321-0.027 0.484-0.030z"></path>
      <path fill="#030201" style="fill: var(--color12, #030201)" d="M12.142 9.478c0.376 0.251 0.589 0.634 0.682 1.053 0.050 0.385-0.060 0.813-0.31 1.126-0.27 0.286-0.575 0.475-0.989 0.509-0.475 0.004-0.821-0.105-1.178-0.411-0.359-0.354-0.46-0.777-0.447-1.249 0.022-0.39 0.239-0.714 0.534-0.98 0.51-0.377 1.171-0.372 1.707-0.049z"></path>
      <path fill="#040301" style="fill: var(--color13, #040301)" d="M19.52 7.906c0.351 0.207 0.584 0.505 0.703 0.875 0.086 0.403 0.043 0.798-0.192 1.152-0.18 0.23-0.42 0.419-0.72 0.491-0.332 0.047-0.666 0.046-0.962-0.112-0.028-0.015-0.056-0.030-0.085-0.045-0.352-0.207-0.569-0.527-0.671-0.9-0.071-0.428-0.021-0.8 0.249-1.16 0.034-0.039 0.069-0.076 0.105-0.113 0.016-0.017 0.033-0.034 0.050-0.051 0.418-0.38 1.034-0.378 1.524-0.136z"></path>
      <path fill="#b90f06" style="fill: var(--color14, #b90f06)" d="M17.846 11.688c-0.046 0.45-0.275 0.902-0.628 1.215-0.346 0.26-0.775 0.391-1.214 0.41-0.039 0.002-0.079 0.005-0.119 0.007-0.645 0.022-1.23-0.2-1.756-0.538 0.789-0.784 2.565-1.72 3.716-1.094z"></path>
      <path fill="#fafaf9" style="fill: var(--color15, #fafaf9)" d="M11.719 9.656c0.107 0.040 0.154 0.079 0.228 0.16 0.056 0.126 0.059 0.237 0.040 0.371-0.049 0.101-0.109 0.179-0.201 0.25-0.136 0.043-0.259 0.052-0.402 0.031-0.112-0.053-0.183-0.128-0.247-0.229-0.029-0.115-0.049-0.218-0.021-0.334 0.159-0.237 0.313-0.273 0.603-0.25z"></path>
      <path fill="#f9f9f9" style="fill: var(--color16, #f9f9f9)" d="M18.976 8.162c0.197 0.148 0.197 0.148 0.222 0.279 0.009 0.169-0.022 0.274-0.147 0.403-0.146 0.091-0.262 0.119-0.435 0.094-0.109-0.066-0.209-0.14-0.268-0.25-0.017-0.16-0.028-0.298 0.059-0.439 0.172-0.138 0.357-0.171 0.569-0.086z"></path>
    </symbol>
    <symbol id="icon-google-play" viewBox="0 0 32 32">
      <path fill="#ea4335" style="fill: var(--color1, #ea4335)" d="M1.619 29.344c0.544 1.938 2.556 3.063 4.494 2.513 0.294-0.081 0.575-0.2 0.838-0.356l15.106-8.6-6.919-6.894-13.519 13.337z"></path>
      <path fill="#fbbc04" style="fill: var(--color2, #fbbc04)" d="M14.737 15.6l7.319 7.306 6.537-3.719c1.737-0.912 2.406-3.056 1.5-4.794-0.337-0.637-0.894-1.1-1.5-1.5l-6.513-3.744z"></path>
      <path fill="#4285f4" style="fill: var(--color3, #4285f4)" d="M1.5 3.581v24.844c0 0.312 0.044 0.619 0.119 0.919l13.519-13.344-13.519-13.35c-0.081 0.3-0.119 0.619-0.119 0.931z"></path>
      <path fill="#34a853" style="fill: var(--color4, #34a853)" d="M15.137 16.006l6.944-6.85-15.081-8.644c-0.569-0.338-1.213-0.512-1.869-0.512-1.631-0.006-3.069 1.081-3.513 2.65l13.519 13.356z"></path>
    </symbol>
    <symbol id="icon-menu-burger" viewBox="0 0 24 24" fill="#fdda05">
      <path stroke-width="1.5" stroke="#fdda05" stroke-linecap="round" d="M3 6.001h18M3 12.001h18M3 18.001h18" />
    </symbol>
    <symbol id="icon-close" viewBox="0 0 32 32">
      <path fill="#fdda05" style="fill: var(--color1, #fdda05)" d="M7.28 6.959c0.188-0.187 0.442-0.292 0.707-0.292s0.519 0.105 0.707 0.292l16 16c0.098 0.092 0.177 0.202 0.232 0.325s0.084 0.255 0.086 0.389c0.002 0.134-0.022 0.268-0.073 0.392s-0.125 0.238-0.22 0.333c-0.095 0.095-0.208 0.17-0.333 0.22s-0.258 0.075-0.392 0.073c-0.134-0.002-0.267-0.032-0.389-0.086s-0.233-0.133-0.325-0.232l-16-16c-0.187-0.188-0.292-0.442-0.292-0.707s0.105-0.519 0.292-0.707z"></path>
      <path fill="#fdda05" style="fill: var(--color1, #fdda05)" d="M24.694 6.959c0.187 0.188 0.292 0.442 0.292 0.707s-0.105 0.519-0.292 0.707l-16 16c-0.19 0.177-0.44 0.273-0.699 0.268s-0.506-0.109-0.689-0.293c-0.183-0.183-0.288-0.43-0.293-0.689s0.092-0.51 0.268-0.699l16-16c0.187-0.187 0.442-0.292 0.707-0.292s0.519 0.105 0.707 0.292z"></path>
    </symbol>
  </defs>
</svg>