<svg aria-hidden="true" style="position:absolute;width:0;height:0;overflow:hidden" xmlns="http://www.w3.org/2000/svg">
   <defs>
    <symbol id="icon-google-play" viewBox="0 0 32 32">
      <path fill="#ea4335" style="fill: var(--color1, #ea4335)" d="M1.619 29.344c0.544 1.938 2.556 3.063 4.494 2.513 0.294-0.081 0.575-0.2 0.838-0.356l15.106-8.6-6.919-6.894-13.519 13.337z"></path>
      <path fill="#fbbc04" style="fill: var(--color2, #fbbc04)" d="M14.737 15.6l7.319 7.306 6.537-3.719c1.737-0.912 2.406-3.056 1.5-4.794-0.337-0.637-0.894-1.1-1.5-1.5l-6.513-3.744z"></path>
      <path fill="#4285f4" style="fill: var(--color3, #4285f4)" d="M1.5 3.581v24.844c0 0.312 0.044 0.619 0.119 0.919l13.519-13.344-13.519-13.35c-0.081 0.3-0.119 0.619-0.119 0.931z"></path>
      <path fill="#34a853" style="fill: var(--color4, #34a853)" d="M15.137 16.006l6.944-6.85-15.081-8.644c-0.569-0.338-1.213-0.512-1.869-0.512-1.631-0.006-3.069 1.081-3.513 2.65l13.519 13.356z"></path>
    </symbol>
    <symbol id="icon-menu-burger" viewBox="0 0 24 24" fill="none">
      <path stroke-width="1.5" stroke="#f5f5f5" stroke-linecap="round" d="M3 6.001h18M3 12.001h18M3 18.001h18" />
    </symbol>
    <symbol id="icon-close" viewBox="0 0 32 32">
      <path fill="#f5f5f5" style="fill: var(--color1, #f5f5f5)" d="M7.28 6.959c0.188-0.187 0.442-0.292 0.707-0.292s0.519 0.105 0.707 0.292l16 16c0.098 0.092 0.177 0.202 0.232 0.325s0.084 0.255 0.086 0.389c0.002 0.134-0.022 0.268-0.073 0.392s-0.125 0.238-0.22 0.333c-0.095 0.095-0.208 0.17-0.333 0.22s-0.258 0.075-0.392 0.073c-0.134-0.002-0.267-0.032-0.389-0.086s-0.233-0.133-0.325-0.232l-16-16c-0.187-0.188-0.292-0.442-0.292-0.707s0.105-0.519 0.292-0.707z"></path>
      <path fill="#f5f5f5" style="fill: var(--color1, #f5f5f5)" d="M24.694 6.959c0.187 0.188 0.292 0.442 0.292 0.707s-0.105 0.519-0.292 0.707l-16 16c-0.19 0.177-0.44 0.273-0.699 0.268s-0.506-0.109-0.689-0.293c-0.183-0.183-0.288-0.43-0.293-0.689s0.092-0.51 0.268-0.699l16-16c0.187-0.187 0.442-0.292 0.707-0.292s0.519 0.105 0.707 0.292z"></path>
    </symbol>
  </defs>
</svg>