<svg aria-hidden="true" style="position:absolute;width:0;height:0;overflow:hidden" xmlns="http://www.w3.org/2000/svg">
   <defs>
    <symbol id="icon-logo" viewBox="0 0 32 32">
      <path fill="#1d3fe7" style="fill: var(--color1, #1d3fe7)" d="M0 0h32v32h-32v-32z"></path>
      <path fill="#fdda05" style="fill: var(--color2, #fdda05)" d="M8.685 18.619c0.023-0 0.045-0.001 0.068-0.001 0.127-0 0.229 0.005 0.34 0.070 0.116 0.121 0.144 0.207 0.159 0.373 0.002 0.023 0.004 0.045 0.007 0.068 0.008 0.082 0.015 0.164 0.021 0.246 0.003 0.033 0.006 0.066 0.009 0.1 0.022 0.258 0.043 0.516 0.063 0.774 0.005 0.066 0.010 0.132 0.015 0.198 0.043 0.555 0.084 1.111 0.12 1.667 0.004 0.061 0.008 0.122 0.012 0.182 0.021 0.318 0.035 0.636 0.039 0.954 0.001 0.029 0.001 0.058 0.002 0.088 0.001 0.152-0.003 0.257-0.104 0.38-0.28 0.173-0.711 0.161-1.033 0.168-0.022 0.001-0.044 0.002-0.066 0.002-0.16 0.001-0.253-0.030-0.369-0.139-0.111-0.205-0.117-0.444-0.131-0.672-0.003-0.037-0.005-0.074-0.008-0.113-0.028-0.467-0.024-0.935-0.018-1.403-0.021 0-0.041 0-0.063 0-0.005 0.034-0.005 0.034-0.011 0.069-0.020 0.088-0.048 0.15-0.092 0.228-0.015 0.027-0.030 0.054-0.045 0.082s-0.032 0.058-0.049 0.087c-0.034 0.062-0.068 0.123-0.102 0.185-0.018 0.032-0.035 0.063-0.053 0.096-0.052 0.095-0.104 0.191-0.155 0.287-0.016 0.031-0.033 0.061-0.050 0.093-0.031 0.058-0.062 0.117-0.093 0.175-0.213 0.397-0.213 0.397-0.376 0.476-0.072 0.017-0.119 0.020-0.192 0.003-0.18-0.12-0.315-0.288-0.441-0.461-0.017-0.023-0.034-0.045-0.051-0.068-0.055-0.073-0.109-0.147-0.164-0.221-0.020-0.026-0.039-0.053-0.059-0.080-0.078-0.105-0.155-0.21-0.232-0.316-0.088-0.12-0.177-0.239-0.271-0.354 0.012 0.275 0.039 0.544 0.078 0.816 0.035 0.249 0.067 0.495 0.078 0.746 0.001 0.022 0.002 0.043 0.004 0.065 0.004 0.071 0.006 0.143 0.008 0.214 0.001 0.022 0.002 0.044 0.004 0.067 0.002 0.121-0.016 0.186-0.079 0.291-0.108 0.095-0.196 0.12-0.335 0.138-0.022 0.003-0.045 0.007-0.068 0.011-0.063 0.010-0.126 0.018-0.19 0.027-0.025 0.004-0.050 0.008-0.075 0.012-0.163 0.024-0.33 0.025-0.495 0.029-0.024 0.001-0.049 0.002-0.074 0.003-0.119 0.001-0.185-0.005-0.291-0.064-0.122-0.139-0.138-0.306-0.158-0.485-0.002-0.022-0.005-0.043-0.007-0.066-0.005-0.046-0.010-0.093-0.015-0.139-0.007-0.067-0.015-0.134-0.022-0.201-0.087-0.772-0.156-1.546-0.217-2.32-0.007-0.085-0.014-0.171-0.021-0.256-0.068-0.818-0.068-0.818-0.074-1.124-0.001-0.036-0.002-0.071-0.002-0.108 0.025-0.158 0.106-0.254 0.228-0.353 0.107-0.058 0.195-0.083 0.314-0.105 0.030-0.006 0.030-0.006 0.061-0.011 0.915-0.162 0.915-0.162 1.169-0.049 0.278 0.259 0.492 0.568 0.714 0.874 0.099 0.136 0.198 0.27 0.297 0.405 0.018 0.025 0.036 0.049 0.055 0.075 0.141 0.219 0.141 0.219 0.332 0.382 0.008-0.022 0.016-0.043 0.025-0.066 0.041-0.099 0.089-0.193 0.14-0.288 0.010-0.019 0.020-0.038 0.030-0.057 0.033-0.061 0.065-0.122 0.098-0.183 0.011-0.021 0.022-0.042 0.034-0.063 0.146-0.273 0.293-0.545 0.445-0.814 0.015-0.026 0.029-0.053 0.044-0.080 0.080-0.14 0.158-0.248 0.278-0.356 0.018-0.017 0.036-0.035 0.055-0.053 0.284-0.166 0.687-0.137 1.006-0.141z"></path>
     <path fill="#fdda05" style="fill: var(--color2, #fdda05)" d="M12.387 18.801c0.028-0 0.056-0.001 0.084-0.001 0.157 0.001 0.274 0.012 0.404 0.107 0.121 0.161 0.2 0.34 0.274 0.527 0.016 0.040 0.016 0.040 0.032 0.081 0.035 0.088 0.070 0.176 0.104 0.263 0.025 0.062 0.049 0.124 0.074 0.187 0.249 0.629 0.49 1.262 0.728 1.896 0.062 0.165 0.124 0.329 0.187 0.493 0.033 0.087 0.066 0.175 0.099 0.262 0.021 0.056 0.043 0.113 0.065 0.169 0.073 0.195 0.114 0.351 0.092 0.56-0.095 0.132-0.187 0.183-0.344 0.219-0.226 0.030-0.452 0.040-0.68 0.043-0.047 0.002-0.047 0.002-0.095 0.004-0.256 0.003-0.256 0.003-0.366-0.078-0.093-0.111-0.139-0.211-0.184-0.347-0.008-0.022-0.016-0.045-0.025-0.068-0.033-0.094-0.057-0.172-0.057-0.272-0.035 0.005-0.070 0.010-0.106 0.015-0.149 0.019-0.298 0.027-0.449 0.034-0.027 0.001-0.055 0.003-0.083 0.004-0.204 0.009-0.408 0.013-0.613 0.010-0.003 0.023-0.007 0.047-0.010 0.071-0.086 0.555-0.086 0.555-0.196 0.668-0.231 0.13-0.491 0.116-0.749 0.116-0.066 0-0.132 0.001-0.199 0.002-0.043 0-0.085 0-0.128 0-0.038 0-0.076 0-0.116 0.001-0.123-0.018-0.175-0.048-0.259-0.14-0.049-0.214 0.014-0.454 0.064-0.664 0.010-0.045 0.010-0.045 0.021-0.091 0.015-0.066 0.030-0.132 0.046-0.199 0.027-0.118 0.054-0.235 0.080-0.353 0.091-0.409 0.183-0.818 0.289-1.224 0.007-0.027 0.014-0.054 0.021-0.082 0.032-0.124 0.065-0.248 0.097-0.372 0.045-0.171 0.088-0.342 0.13-0.513 0.054-0.217 0.113-0.433 0.174-0.648 0.009-0.033 0.018-0.065 0.027-0.099 0.060-0.209 0.114-0.349 0.301-0.474 0.080-0.016 0.080-0.016 0.176-0.027 0.036-0.004 0.071-0.008 0.108-0.012 0.057-0.006 0.057-0.006 0.116-0.012s0.059-0.006 0.118-0.012c0.248-0.024 0.494-0.040 0.743-0.042z"></path>
     <path fill="#fdda05" style="fill: var(--color2, #fdda05)" d="M23.125 19.094c0.051 0.041 0.051 0.041 0.094 0.094 0.010 0.094 0.013 0.181 0.012 0.275-0 0.028-0 0.056-0.001 0.085-0.007 0.413-0.060 0.823-0.105 1.234 0.433 0.015 0.433 0.015 0.875 0.031 0.006-0.11 0.006-0.11 0.012-0.223 0.013-0.222 0.029-0.444 0.047-0.666 0.003-0.042 0.003-0.042 0.006-0.085 0.041-0.477 0.041-0.477 0.205-0.639 0.133-0.055 0.238-0.061 0.38-0.058 0.026 0 0.052 0.001 0.078 0.001 0.18 0.005 0.357 0.022 0.535 0.049 0.022 0.003 0.044 0.006 0.067 0.009 0.11 0.020 0.166 0.043 0.246 0.121 0.102 0.173 0.047 0.379 0.020 0.569-0.037 0.267-0.062 0.535-0.087 0.803-0.037 0.4-0.077 0.799-0.13 1.196-0.027 0.207-0.048 0.415-0.067 0.623-0.003 0.029-0.005 0.059-0.008 0.089-0.014 0.148-0.027 0.296-0.040 0.445-0.005 0.055-0.010 0.11-0.015 0.165-0.002 0.025-0.004 0.050-0.006 0.076-0.036 0.395-0.036 0.395-0.133 0.52-0.144 0.102-0.319 0.070-0.489 0.070-0.063 0-0.125 0.001-0.188 0.001-0.040 0-0.080 0-0.121 0-0.036 0-0.073 0-0.11 0-0.14-0.010-0.274-0.029-0.386-0.118-0.053-0.121-0.046-0.237-0.044-0.368 0-0.028 0.001-0.057 0.001-0.086 0.014-0.798 0.014-0.798 0.103-1.123-0.026 0-0.053 0.001-0.080 0.001-0.267 0.002-0.529-0.010-0.795-0.032 0.001 0.024 0.002 0.049 0.002 0.074 0.004 0.273-0.009 0.544-0.028 0.817-0.002 0.035-0.004 0.070-0.007 0.106-0.026 0.35-0.026 0.35-0.124 0.503-0.177 0.113-0.351 0.107-0.557 0.104-0.044 0-0.044 0-0.088 0-0.52-0.004-0.52-0.004-0.699-0.166-0.116-0.348-0.012-0.826 0.014-1.186 0.005-0.067 0.010-0.133 0.014-0.2 0.010-0.139 0.020-0.278 0.030-0.417 0.013-0.176 0.026-0.352 0.038-0.529 0.010-0.137 0.020-0.275 0.030-0.412 0.005-0.065 0.009-0.13 0.014-0.195 0.024-0.329 0.049-0.657 0.078-0.986 0.002-0.027 0.004-0.054 0.007-0.082 0.016-0.174 0.032-0.334 0.148-0.473 0.257-0.21 0.951-0.106 1.252-0.021z"></path>
      <path fill="#fdda05" style="fill: var(--color2, #fdda05)" d="M26.471 19.273c0.026-0 0.051-0 0.078-0 0.028 0 0.055 0.001 0.084 0.001s0.058 0 0.088 0.001c0.303 0.004 0.605 0.027 0.907 0.055 0.091 0.008 0.182 0.016 0.273 0.024 0.302 0.026 0.602 0.059 0.902 0.1 0.027 0.004 0.055 0.007 0.083 0.011 0.026 0.004 0.051 0.007 0.077 0.011 0.022 0.003 0.045 0.006 0.067 0.010 0.126 0.029 0.178 0.062 0.251 0.171 0.030 0.227-0.007 0.46-0.039 0.686-0.003 0.026-0.007 0.051-0.010 0.077-0.024 0.153-0.056 0.249-0.169 0.362-0.274 0.137-0.777 0.003-1.072-0.031-0.054-0.006-0.108-0.012-0.162-0.018-0.13-0.015-0.261-0.029-0.391-0.044-0.010 0.165-0.021 0.33-0.031 0.5 0.044-0.001 0.088-0.003 0.133-0.004 0.178 0 0.354 0.013 0.531 0.029 0.040 0.003 0.040 0.003 0.081 0.007 0.165 0.016 0.297 0.043 0.443 0.124 0.107 0.139 0.075 0.334 0.063 0.5-0.054 0.358-0.054 0.358-0.142 0.464-0.119 0.056-0.232 0.048-0.362 0.046-0.041-0-0.041-0-0.083-0.001-0.275-0.005-0.547-0.035-0.819-0.071 0 0.019 0 0.038 0.001 0.057 0 0.025 0 0.050 0 0.076 0 0.025 0 0.049 0.001 0.075-0.002 0.1-0.016 0.194-0.033 0.293 0.021-0 0.042-0.001 0.064-0.002 0.252-0.003 0.5 0.013 0.751 0.036 0.066 0.006 0.132 0.012 0.198 0.017 0.226 0.020 0.434 0.044 0.643 0.135 0.162 0.243 0.051 0.645 0.001 0.919-0.035 0.12-0.081 0.201-0.158 0.3-0.483 0.241-1.569-0.041-2.080-0.111-0.165-0.021-0.331-0.036-0.497-0.049-0.149-0.014-0.263-0.039-0.392-0.121-0.189-0.283-0.026-0.852 0.010-1.178 0.007-0.067 0.015-0.133 0.022-0.2 0.039-0.358 0.080-0.716 0.124-1.074 0.030-0.241 0.055-0.482 0.079-0.724 0.015-0.15 0.031-0.299 0.047-0.449 0.004-0.035 0.007-0.070 0.011-0.107 0.011-0.099 0.022-0.197 0.034-0.296 0.003-0.029 0.006-0.058 0.009-0.088 0.022-0.178 0.061-0.3 0.165-0.447 0.095-0.064 0.114-0.070 0.221-0.071z"></path>
      <path fill="#fdda05" style="fill: var(--color2, #fdda05)" d="M21.062 19.25c0.36 0.279 0.36 0.279 0.393 0.484-0.008 0.299-0.303 0.58-0.486 0.797-0.025 0.032-0.050 0.064-0.076 0.098-0.099 0.073-0.16 0.084-0.282 0.078-0.134-0.033-0.237-0.109-0.349-0.188-0.186-0.127-0.422-0.105-0.637-0.082-0.242 0.087-0.386 0.241-0.499 0.466-0.108 0.264-0.109 0.593-0.017 0.862 0.089 0.19 0.234 0.313 0.42 0.404 0.286 0.053 0.541 0.006 0.79-0.152 0.031-0.022 0.031-0.022 0.063-0.044 0.086-0.056 0.119-0.069 0.227-0.080 0.295 0.116 0.464 0.469 0.615 0.732 0.029 0.069 0.036 0.122 0.038 0.198 0.001 0.023 0.002 0.046 0.003 0.069-0.044 0.231-0.242 0.352-0.42 0.48-0.475 0.322-1.061 0.414-1.622 0.314-0.572-0.137-1.057-0.488-1.367-0.986-0.325-0.577-0.395-1.307-0.23-1.947 0.209-0.67 0.568-1.267 1.2-1.61 0.187-0.097 0.373-0.167 0.58-0.207 0.029-0.006 0.058-0.011 0.088-0.017 0.556-0.079 1.092 0.032 1.568 0.33z"></path>
      <path fill="#fdda05" style="fill: var(--color2, #fdda05)" d="M15.082 18.779c0.329-0.004 0.657-0.005 0.986-0.006 0.145-0 0.291-0.001 0.436-0.002 0.113-0.001 0.226-0.001 0.339-0.001 0.054-0 0.107-0 0.161-0.001 0.075-0.001 0.149-0 0.223-0 0.033-0 0.033-0 0.066-0.001 0.143 0.001 0.242 0.029 0.363 0.106 0.117 0.186 0.108 0.375 0.105 0.59 0 0.032 0.001 0.065 0.001 0.098-0.001 0.214-0.009 0.441-0.149 0.614-0.111 0.089-0.243 0.076-0.38 0.075-0.059-0-0.059-0-0.118-0-0.061-0-0.061-0-0.123-0.001-0.041-0-0.082-0-0.125-0-0.102-0-0.203-0.001-0.305-0.002 0 0.056 0 0.056 0.001 0.114 0.002 0.355 0.003 0.709 0.004 1.064 0.001 0.182 0.001 0.365 0.002 0.547 0.001 0.176 0.002 0.352 0.002 0.528 0 0.067 0.001 0.134 0.001 0.201 0.001 0.094 0.001 0.188 0.001 0.282 0 0.028 0.001 0.056 0.001 0.084-0.001 0.148-0.008 0.249-0.105 0.368-0.195 0.13-0.427 0.101-0.654 0.101-0.065 0-0.13 0.001-0.194 0.002-0.041 0-0.082 0-0.125 0-0.037 0-0.075 0.001-0.114 0.001-0.118-0.013-0.171-0.022-0.258-0.105-0.062-0.199-0.071-0.402-0.070-0.609 0-0.028 0-0.056 0-0.084 0-0.091 0.001-0.181 0.001-0.272 0-0.063 0-0.127 0-0.19 0-0.166 0.001-0.331 0.002-0.497 0.001-0.169 0.001-0.339 0.001-0.508 0.001-0.332 0.002-0.664 0.003-0.996-0.039 0.005-0.079 0.010-0.119 0.015-0.165 0.021-0.328 0.024-0.494 0.026-0.032 0.001-0.063 0.002-0.096 0.003-0.142 0.001-0.24-0.004-0.372-0.062-0.168-0.168-0.147-0.379-0.148-0.604 0-0.038 0-0.075 0-0.114-0.001-0.038-0.001-0.075-0.002-0.114 0-0.036-0-0.073-0-0.11-0-0.033-0-0.066-0-0.1 0.014-0.116 0.040-0.185 0.105-0.283 0.175-0.134 0.326-0.145 0.542-0.148 0.033-0.001 0.066-0.002 0.101-0.003 0.167-0.004 0.334-0.005 0.502-0.007z"></path>
      <path fill="#32a8eb" style="fill: var(--color3, #32a8eb)" d="M7.992 24.303c0.035-0 0.069-0.001 0.105-0.002 0.050-0 0.050-0 0.101-0 0.030-0 0.060-0 0.091-0 0.101 0.014 0.159 0.046 0.241 0.105 0.102 0.193 0.103 0.411 0.116 0.624 0.003 0.045 0.003 0.045 0.006 0.092 0.006 0.097 0.012 0.193 0.018 0.29s0.012 0.192 0.018 0.288c0.004 0.060 0.008 0.119 0.011 0.179 0.009 0.135 0.019 0.27 0.033 0.404 0.016 0.151 0.025 0.302 0.032 0.454 0.001 0.028 0.003 0.055 0.004 0.084 0.016 0.331 0.029 0.661 0.042 0.992 0.002 0.038 0.002 0.038 0.003 0.077 0.006 0.151 0.010 0.301 0.013 0.452 0.001 0.037 0.003 0.073 0.004 0.111 0.002 0.238 0.002 0.238-0.095 0.364-0.225 0.143-0.522 0.133-0.778 0.135-0.030 0.001-0.060 0.002-0.091 0.003-0.14 0.001-0.219-0.001-0.338-0.080-0.133-0.202-0.135-0.433-0.142-0.667-0.001-0.031-0.002-0.061-0.004-0.093-0.004-0.097-0.007-0.194-0.011-0.292-0.005-0.128-0.010-0.255-0.015-0.383-0.001-0.030-0.002-0.061-0.004-0.092-0.009-0.22-0.022-0.44-0.042-0.659-0.025 0.063-0.051 0.127-0.076 0.19-0.022 0.056-0.045 0.112-0.067 0.168-0.058 0.144-0.115 0.288-0.171 0.432-0.338 0.863-0.338 0.863-0.498 0.991-0.088 0.029-0.152 0.039-0.244 0.043-0.026 0.002-0.052 0.003-0.079 0.005-0.205-0.040-0.324-0.233-0.435-0.395-0.015-0.022-0.031-0.044-0.046-0.067-0.247-0.358-0.487-0.722-0.727-1.085 0.003 0.019 0.006 0.038 0.009 0.058 0.032 0.199 0.064 0.397 0.096 0.596 0.012 0.074 0.024 0.148 0.036 0.222 0.017 0.107 0.034 0.213 0.051 0.32 0.005 0.033 0.011 0.066 0.016 0.1 0.075 0.471 0.075 0.471 0.085 0.665 0.002 0.022 0.003 0.045 0.005 0.068-0.016 0.065-0.016 0.065-0.071 0.131-0.153 0.088-0.309 0.104-0.482 0.129-0.034 0.005-0.068 0.011-0.103 0.016-0.462 0.070-0.462 0.070-0.61 0.038-0.29-0.232-0.281-0.815-0.336-1.16-0.008-0.050-0.008-0.050-0.016-0.1-0.085-0.526-0.164-1.054-0.24-1.582-0.005-0.033-0.009-0.065-0.014-0.099-0.013-0.093-0.026-0.186-0.039-0.279-0.004-0.027-0.008-0.054-0.012-0.082-0.036-0.261-0.066-0.522-0.072-0.786-0.001-0.039-0.002-0.078-0.004-0.118 0.016-0.127 0.047-0.175 0.138-0.263 0.29-0.171 0.633-0.193 0.961-0.199 0.025-0.001 0.050-0.002 0.076-0.002 0.198-0.001 0.334 0.043 0.477 0.184 0.046 0.052 0.088 0.105 0.13 0.16 0.024 0.031 0.024 0.031 0.048 0.062 0.197 0.257 0.378 0.526 0.557 0.796 0.040 0.060 0.080 0.12 0.121 0.18 0.092 0.138 0.184 0.276 0.276 0.414 0.034 0.052 0.069 0.103 0.103 0.155 0.010-0.025 0.019-0.050 0.029-0.075 0.758-1.928 0.758-1.928 1.127-2.144 0.22-0.077 0.45-0.073 0.68-0.072z"></path>
     <path fill="#32a8ea" style="fill: var(--color4, #32a8ea)" d="M13.844 24.125c0.029 0.009 0.057 0.018 0.087 0.027 0.183 0.066 0.329 0.158 0.476 0.285 0.019 0.016 0.038 0.031 0.057 0.047 0.266 0.239 0.398 0.583 0.417 0.933 0.008 0.426-0.094 0.789-0.381 1.113-0.191 0.188-0.191 0.188-0.281 0.188 0.25 0.415 0.487 0.786 0.89 1.066 0.078 0.059 0.078 0.059 0.141 0.152-0.004 0.149-0.087 0.242-0.188 0.344-0.068 0.054-0.14 0.101-0.215 0.146-0.028 0.018-0.028 0.018-0.056 0.036-0.27 0.17-0.503 0.235-0.823 0.193-0.29-0.103-0.418-0.455-0.543-0.713-0.124-0.261-0.124-0.261-0.181-0.386-0.014-0.030-0.028-0.060-0.042-0.090-0.012-0.027-0.024-0.053-0.037-0.081-0.047-0.082-0.094-0.138-0.167-0.198-0.114-0.025-0.114-0.025-0.219-0.031 0.002 0.022 0.004 0.043 0.006 0.066 0.063 0.729 0.063 0.729 0.068 1.073 0.001 0.023 0.002 0.046 0.002 0.069 0 0.097-0.001 0.152-0.067 0.226-0.242 0.115-0.545 0.105-0.809 0.111-0.027 0.001-0.054 0.002-0.082 0.003-0.039 0-0.039 0-0.078 0.001-0.034 0.001-0.034 0.001-0.070 0.001-0.103-0.030-0.135-0.085-0.19-0.175-0.023-0.101-0.023-0.101-0.034-0.224-0.002-0.024-0.004-0.048-0.007-0.072-0.008-0.089-0.015-0.177-0.022-0.266-0.004-0.056-0.004-0.056-0.009-0.113-0.021-0.269-0.041-0.538-0.061-0.808-0.009-0.119-0.017-0.238-0.026-0.357-0.039-0.527-0.073-1.054-0.089-1.583-0.002-0.067-0.005-0.135-0.007-0.202-0.003-0.092-0.005-0.183-0.007-0.275-0.001-0.030-0.002-0.059-0.004-0.090-0.003-0.206-0.003-0.206 0.079-0.308 0.109-0.054 0.213-0.079 0.333-0.097 0.023-0.004 0.047-0.007 0.071-0.011 0.073-0.011 0.147-0.022 0.22-0.032 0.022-0.003 0.044-0.007 0.066-0.010 0.57-0.086 1.223-0.139 1.778 0.041z"></path>
     <path fill="#31a8ea" style="fill: var(--color5, #31a8ea)" d="M17.398 23.963c0.063-0 0.126-0.001 0.188-0.001 0.516-0.001 0.516-0.001 0.664 0.070 0.121 0.123 0.182 0.228 0.236 0.394 0.007 0.020 0.013 0.040 0.020 0.060 0.021 0.065 0.042 0.13 0.063 0.195 0.015 0.046 0.030 0.091 0.045 0.137 0.178 0.55 0.344 1.104 0.494 1.662 0.046 0.17 0.096 0.338 0.146 0.507 0.018 0.061 0.036 0.123 0.054 0.184 0.028 0.095 0.056 0.19 0.084 0.285 0.028 0.093 0.055 0.186 0.082 0.279 0.008 0.028 0.017 0.056 0.026 0.085 0.056 0.192 0.099 0.387 0.094 0.588-0.061 0.103-0.106 0.141-0.221 0.175-0.211 0.043-0.416 0.056-0.631 0.057-0.033 0.001-0.066 0.002-0.099 0.003-0.267 0.002-0.267 0.002-0.38-0.083-0.081-0.096-0.115-0.166-0.148-0.287-0.014-0.050-0.014-0.050-0.029-0.101-0.026-0.118-0.040-0.238-0.055-0.358-0.402 0-0.804 0-1.219 0-0.041 0.165-0.082 0.33-0.125 0.5-0.111 0.222-0.111 0.222-0.25 0.281-0.091 0.012-0.091 0.012-0.191 0.011-0.036-0-0.073-0-0.11-0s-0.076-0.001-0.115-0.002c-0.037 0-0.075 0-0.113 0-0.197-0.001-0.378-0.006-0.564-0.073-0.092-0.138-0.060-0.248-0.031-0.406 0.030-0.117 0.068-0.231 0.107-0.346 0.023-0.070 0.046-0.14 0.069-0.21 0.012-0.037 0.024-0.074 0.037-0.112 0.049-0.151 0.094-0.303 0.139-0.456 0.15-0.508 0.314-1.012 0.482-1.515 0.011-0.034 0.023-0.068 0.034-0.103 0.074-0.222 0.149-0.444 0.226-0.665 0.010-0.028 0.019-0.056 0.030-0.085 0.027-0.078 0.056-0.156 0.084-0.234 0.008-0.023 0.016-0.045 0.024-0.068 0.060-0.157 0.127-0.238 0.269-0.331 0.189-0.051 0.39-0.037 0.585-0.037z"></path>
     <path fill="#31a8ea" style="fill: var(--color5, #31a8ea)" d="M27.731 24.563c0.032 0.003 0.065 0.007 0.098 0.010 0.068 0.007 0.136 0.014 0.204 0.021 0.103 0.011 0.206 0.021 0.308 0.032 0.188 0.019 0.376 0.040 0.564 0.061 0.036 0.004 0.036 0.004 0.073 0.008 0.061 0.007 0.122 0.015 0.184 0.022 0.032 0.004 0.064 0.008 0.096 0.012 0.143 0.034 0.221 0.085 0.303 0.207 0.007 0.23-0.030 0.463-0.070 0.689-0.007 0.038-0.013 0.076-0.020 0.114-0.043 0.128-0.079 0.182-0.191 0.259-0.106 0.018-0.206 0.010-0.313 0-0.035-0.003-0.069-0.006-0.105-0.009-0.114-0.011-0.228-0.023-0.343-0.036-0.039-0.004-0.078-0.008-0.118-0.013-0.312-0.034-0.312-0.034-0.466-0.067-0.003 0.038-0.003 0.038-0.006 0.078-0.003 0.034-0.005 0.067-0.008 0.102-0.003 0.033-0.005 0.067-0.008 0.101-0.008 0.077-0.021 0.145-0.041 0.219 0.038 0.002 0.077 0.003 0.117 0.005 0.863 0.038 0.863 0.038 1.040 0.214 0.017 0.287 0.029 0.592-0.119 0.848-0.309 0.182-0.826 0.018-1.162-0.035-0.010 0.165-0.021 0.33-0.031 0.5 0.115 0.005 0.115 0.005 0.232 0.010 0.25 0.013 0.498 0.036 0.746 0.064 0.034 0.004 0.067 0.007 0.102 0.011 0.032 0.004 0.064 0.008 0.097 0.011 0.042 0.005 0.042 0.005 0.086 0.010 0.103 0.024 0.192 0.068 0.268 0.144 0.020 0.357 0.039 0.805-0.207 1.090-0.199 0.094-0.496 0.026-0.711 0.004-0.050-0.005-0.050-0.005-0.102-0.010-0.071-0.007-0.142-0.014-0.213-0.021-0.106-0.011-0.213-0.021-0.319-0.031-0.315-0.031-0.63-0.063-0.943-0.108-0.024-0.003-0.048-0.006-0.072-0.009-0.145-0.022-0.242-0.053-0.34-0.165-0.018-0.093-0.018-0.093-0.014-0.203 0.001-0.031 0.001-0.031 0.002-0.062 0.010-0.25 0.041-0.498 0.072-0.746 0.018-0.148 0.036-0.295 0.054-0.443 0.004-0.030 0.007-0.060 0.011-0.091 0.036-0.301 0.067-0.602 0.098-0.903 0.035-0.344 0.073-0.687 0.123-1.029 0.021-0.143 0.036-0.285 0.045-0.43 0.013-0.174 0.059-0.282 0.17-0.418 0.233-0.123 0.572-0.046 0.827-0.019z"></path>
     <path fill="#32a8ea" style="fill: var(--color4, #32a8ea)" d="M22.833 24.474c0.143 0.112 0.289 0.227 0.355 0.401 0.031 0.286-0.185 0.525-0.354 0.738-0.161 0.195-0.161 0.195-0.234 0.213-0.201 0.011-0.308-0.055-0.463-0.179-0.17-0.124-0.337-0.145-0.543-0.116-0.277 0.096-0.407 0.243-0.536 0.498-0.116 0.289-0.095 0.676 0.024 0.959 0.093 0.159 0.222 0.258 0.386 0.338 0.236 0.043 0.439 0.024 0.658-0.076 0.032-0.023 0.063-0.045 0.096-0.068 0.102-0.063 0.163-0.082 0.281-0.074 0.243 0.069 0.411 0.498 0.529 0.705 0.045 0.090 0.041 0.15 0.031 0.25-0.163 0.306-0.409 0.458-0.719 0.594-0.039 0.017-0.039 0.017-0.078 0.035-0.469 0.167-1.080 0.085-1.52-0.119-0.522-0.277-0.883-0.74-1.067-1.299-0.172-0.639-0.127-1.364 0.164-1.961 0.318-0.551 0.751-0.941 1.366-1.129 0.554-0.13 1.156-0.032 1.623 0.291z"></path>
     <path fill="#31a8eb" style="fill: var(--color6, #31a8eb)" d="M24.017 24.304c0.034-0 0.067-0 0.102-0 0.052 0 0.052 0 0.106 0.001 0.034-0 0.069-0 0.104-0.001 0.489 0.001 0.489 0.001 0.631 0.113 0.070 0.090 0.055 0.2 0.054 0.309-0 0.028-0 0.056-0.001 0.085-0.009 0.429-0.064 0.856-0.111 1.282-0.032 0.289-0.061 0.578-0.089 0.867-0.011 0.11-0.022 0.219-0.033 0.329-0.010 0.102-0.020 0.203-0.030 0.305 0.032-0 0.064-0 0.096-0 0.257-0.001 0.514 0 0.771 0.010 0.029 0.001 0.059 0.001 0.089 0.002 0.043 0.002 0.043 0.002 0.086 0.003 0.025 0.001 0.050 0.002 0.076 0.002 0.086 0.017 0.13 0.047 0.194 0.107 0.097 0.291 0.049 0.741-0.031 1.031-0.099 0.143-0.099 0.143-0.187 0.188-0.656 0.035-1.316-0.038-1.969-0.094-0.034-0.003-0.068-0.006-0.104-0.009-0.042-0.004-0.042-0.004-0.084-0.008-0.034-0.003-0.034-0.003-0.068-0.006-0.089-0.014-0.145-0.044-0.213-0.103-0.081-0.146-0.066-0.282-0.056-0.443 0.002-0.030 0.003-0.059 0.005-0.090 0.025-0.438 0.058-0.876 0.090-1.314 0.007-0.095 0.014-0.189 0.021-0.284 0.034-0.462 0.068-0.924 0.108-1.385 0.017-0.196 0.029-0.391 0.037-0.587 0.016-0.101 0.046-0.16 0.108-0.241 0.1-0.064 0.181-0.070 0.298-0.071z"></path>
     <path fill="#32a8eb" style="fill: var(--color3, #32a8eb)" d="M10.594 24.25c0.080 0.12 0.077 0.225 0.083 0.364 0.002 0.042 0.002 0.042 0.004 0.084 0.005 0.092 0.009 0.184 0.014 0.276 0.003 0.065 0.007 0.129 0.010 0.194 0.009 0.171 0.017 0.342 0.026 0.512s0.017 0.341 0.026 0.512c0.032 0.633 0.064 1.267 0.086 1.901 0.001 0.025 0.002 0.050 0.003 0.076 0.013 0.365 0.013 0.365-0.052 0.479-0.191 0.176-0.459 0.145-0.704 0.146-0.055 0.002-0.055 0.002-0.11 0.003-0.266 0.002-0.266 0.002-0.393-0.088-0.077-0.119-0.090-0.221-0.099-0.361-0.002-0.030-0.004-0.061-0.007-0.092-0.002-0.033-0.004-0.066-0.007-0.1s-0.005-0.070-0.007-0.106c-0.008-0.116-0.016-0.232-0.024-0.348-0.006-0.081-0.011-0.162-0.017-0.242-0.012-0.17-0.023-0.339-0.035-0.509-0.013-0.195-0.027-0.39-0.040-0.586-0.013-0.189-0.026-0.377-0.039-0.566-0.005-0.080-0.011-0.16-0.016-0.239-0.008-0.112-0.015-0.224-0.023-0.336-0.002-0.033-0.005-0.065-0.007-0.099-0.045-0.677-0.045-0.677 0.047-0.803 0.115-0.088 0.203-0.114 0.344-0.135 0.055-0.010 0.055-0.010 0.111-0.020 0.594-0.064 0.594-0.064 0.826 0.082z"></path>
      <path fill="#fdda05" style="fill: var(--color2, #fdda05)" d="M19.594 13.5c0.321 0.148 0.51 0.51 0.674 0.805 0.019 0.034 0.039 0.068 0.059 0.103 0.059 0.103 0.116 0.207 0.174 0.311 0.010 0.019 0.021 0.037 0.031 0.057 0.031 0.056 0.062 0.112 0.092 0.168 0.027 0.050 0.027 0.050 0.055 0.101 0.040 0.080 0.040 0.080 0.040 0.143 0.020 0.003 0.040 0.007 0.060 0.011 1.588 0.284 1.588 0.284 1.877 0.552 0.086 0.14 0.081 0.278 0.063 0.438-0.066 0.233-0.253 0.414-0.406 0.594-0.028 0.033-0.055 0.066-0.083 0.099-0.161 0.193-0.326 0.381-0.497 0.564-0.142 0.152-0.144 0.234-0.142 0.437 0.004 0.104 0.019 0.204 0.034 0.307 0.033 0.236 0.033 0.236-0.044 0.342-0.057 0.052-0.104 0.094-0.174 0.127-0.102-0.011-0.188-0.059-0.279-0.104-0.193-0.089-0.39-0.154-0.596-0.209-0.021-0.006-0.041-0.011-0.063-0.017-0.192-0.048-0.376-0.055-0.574-0.053-0.045-0-0.045-0-0.091-0.001-0.3 0.001-0.584 0.052-0.87 0.143-0.032 0.010-0.032 0.010-0.065 0.020-0.147 0.048-0.277 0.108-0.407 0.195-0.056 0.026-0.056 0.026-0.12 0.022-0.078-0.035-0.104-0.075-0.151-0.146-0.135-0.189-0.31-0.293-0.535-0.35-0.125-0.016-0.249-0.025-0.375-0.031 0.006-0.032 0.011-0.065 0.017-0.098 0.038-0.254 0.038-0.254-0.036-0.492-0.073-0.078-0.151-0.15-0.231-0.222-0.048-0.056-0.095-0.114-0.141-0.172-0.092-0.114-0.186-0.223-0.285-0.33-0.227-0.25-0.444-0.503-0.433-0.855 0.029-0.154 0.113-0.236 0.234-0.33 0.313-0.157 0.658-0.218 0.998-0.287 0.078-0.016 0.156-0.032 0.233-0.048 0.048-0.010 0.096-0.020 0.144-0.030 0.243-0.037 0.243-0.037 0.431-0.175 0.015-0.029 0.031-0.058 0.047-0.089 0.026-0.049 0.026-0.049 0.053-0.098 0.027-0.052 0.027-0.052 0.055-0.105 0.039-0.071 0.077-0.143 0.116-0.214 0.019-0.035 0.038-0.070 0.057-0.106 0.563-1.032 0.563-1.032 1.053-0.973z"></path>
      <path fill="#288ae9" style="fill: var(--color7, #288ae9)" d="M23.443 13.236c0.042 0 0.042 0 0.085 0.001 0.499 0.009 0.499 0.009 0.628 0.138 0 0.107-0.004 0.187-0.075 0.271-0.017 0.017-0.034 0.034-0.052 0.052-0.084 0.090-0.107 0.15-0.111 0.273 0.010 0.146 0.045 0.232 0.145 0.342 0.199 0.166 0.356 0.2 0.615 0.198 0.185-0.019 0.294-0.102 0.416-0.235 0.068-0.192 0.048-0.373-0.031-0.557 0.008-0.086 0.008-0.086 0.031-0.156 0.171-0.085 0.397-0.021 0.574 0.023 0.023 0.006 0.046 0.011 0.070 0.017 0.445 0.111 0.445 0.111 0.543 0.21 0.016 0.248-0.035 0.472-0.090 0.713-0.061 0.272-0.118 0.543-0.16 0.818-0.14-0.021-0.256-0.056-0.387-0.111-0.165-0.065-0.281-0.104-0.457-0.076-0.231 0.102-0.331 0.327-0.42 0.551-0.108 0.299-0.229 0.637-0.119 0.955 0.059 0.093 0.124 0.146 0.226 0.182 0.113 0.001 0.225-0.003 0.338-0.011 0.123-0.004 0.179-0.003 0.272 0.081 0.062 0.113 0.067 0.211 0.047 0.335-0.055 0.147-0.135 0.238-0.25 0.344-0.063-0.031-0.063-0.031-0.109-0.145-0.093-0.192-0.266-0.309-0.464-0.383-0.070-0.018-0.137-0.028-0.208-0.035-0.034-0.004-0.034-0.004-0.068-0.008-0.246-0.014-0.487 0.067-0.68 0.221-0.1 0.094-0.16 0.196-0.221 0.318-0.056-0.009-0.112-0.018-0.168-0.027-0.047-0.008-0.047-0.008-0.095-0.015-0.081-0.020-0.081-0.020-0.144-0.082 0.010-0.052 0.020-0.104 0.031-0.156 0.005-0.053 0.008-0.107 0.010-0.16 0.001-0.026 0.002-0.053 0.004-0.080-0.007-0.075-0.007-0.075-0.062-0.126-0.1-0.052-0.191-0.063-0.303-0.077-0.059-0.007-0.059-0.007-0.12-0.015-0.030-0.003-0.060-0.007-0.091-0.010 0.014-0.022 0.029-0.044 0.043-0.066 0.28-0.427 0.28-0.427 0.281-0.922-0.092-0.226-0.232-0.337-0.449-0.442-0.177-0.072-0.363-0.113-0.549-0.156-0.079-0.019-0.158-0.037-0.236-0.056-0.035-0.008-0.069-0.016-0.105-0.024-0.079-0.021-0.079-0.021-0.11-0.052-0.028-0.268-0.012-0.5 0.156-0.719 0.114-0.105 0.212-0.151 0.365-0.172 0.191 0.029 0.285 0.131 0.416 0.266 0.098 0.049 0.173 0.042 0.281 0.031 0.149-0.115 0.186-0.226 0.211-0.406 0.004-0.023 0.007-0.047 0.011-0.071 0.027-0.177 0.039-0.353 0.040-0.531 0.059-0.268 0.266-0.264 0.493-0.255z"></path>
      <path fill="#ef42a3" style="fill: var(--color8, #ef42a3)" d="M27.35 14.532c0.139 0.076 0.242 0.199 0.306 0.343 0.019 0.129 0.027 0.203-0.038 0.316-0.069 0.093-0.144 0.178-0.224 0.262-0.071 0.11-0.077 0.201-0.051 0.328 0.068 0.111 0.129 0.172 0.25 0.219 0.104 0.010 0.104 0.010 0.217 0.008 0.038 0 0.075 0 0.114 0.001 0.102-0.008 0.17-0.028 0.263-0.071 0.087-0.020 0.131-0.015 0.208 0.030 0.105 0.093 0.133 0.169 0.152 0.308 0.013 0.282-0.002 0.616-0.188 0.844-0.047 0.037-0.047 0.037-0.121 0.035-0.098-0.035-0.16-0.087-0.238-0.154-0.098-0.049-0.172-0.042-0.281-0.031-0.118 0.067-0.201 0.155-0.25 0.281-0.021 0.161-0.038 0.348 0.053 0.49 0.112 0.112 0.275 0.097 0.423 0.1 0.086 0.003 0.086 0.003 0.118 0.035-0.013 0.184-0.056 0.34-0.123 0.512-0.008 0.022-0.017 0.044-0.025 0.067-0.062 0.163-0.062 0.163-0.133 0.234-0.316 0.030-0.647-0.011-0.963-0.031-0.049-0.003-0.099-0.006-0.148-0.009-0.119-0.007-0.239-0.015-0.358-0.022-0.005-0.020-0.010-0.039-0.015-0.059-0.011-0.038-0.011-0.038-0.022-0.077-0.007-0.025-0.014-0.051-0.021-0.077-0.031-0.073-0.031-0.073-0.104-0.107-0.103-0.027-0.195-0.033-0.301-0.036-0.040-0.001-0.081-0.002-0.122-0.004s-0.085-0.002-0.127-0.003c-0.043-0.001-0.086-0.002-0.129-0.004-0.105-0.003-0.21-0.006-0.314-0.008-0.065-0.117-0.065-0.117-0.044-0.191 0.077-0.138 0.149-0.232 0.279-0.325 0.148-0.109 0.241-0.213 0.297-0.391 0.024-0.176 0.042-0.365-0.057-0.521-0.094-0.102-0.094-0.102-0.222-0.14-0.033 0.002-0.033 0.002-0.068 0.003-0.037 0.001-0.037 0.001-0.074 0.002-0.051 0.002-0.103 0.005-0.154 0.007-0.187 0.005-0.187 0.005-0.285-0.061-0.094-0.147-0.069-0.31-0.033-0.475 0.072-0.288 0.167-0.644 0.425-0.815 0.198-0.024 0.337 0.041 0.512 0.123 0.19 0.089 0.368 0.164 0.582 0.158 0.136-0.047 0.136-0.047 0.219-0.156 0.001-0.052-0-0.105-0.002-0.157-0.001-0.031-0.002-0.063-0.002-0.095-0.002-0.066-0.004-0.132-0.007-0.198-0.006-0.27-0.006-0.27 0.085-0.382 0.226-0.203 0.471-0.222 0.746-0.105z"></path>
      <path fill="#f9d22a" style="fill: var(--color9, #f9d22a)" d="M13.312 2.25c0.491 0.349 0.732 0.906 0.849 1.476 0.023 0.105 0.052 0.204 0.088 0.306 0.021 0 0.042 0.001 0.064 0.001 1.382 0.033 2.668 0.352 3.811 1.155 0.034 0.023 0.068 0.046 0.102 0.070 0.462 0.335 0.891 0.769 1.21 1.242 0.022 0.032 0.022 0.032 0.044 0.065 0.41 0.61 0.705 1.267 0.91 1.973 0.088 0.303 0.182 0.529 0.389 0.774 0.473 0.605 0.692 1.271 0.613 2.039-0.117 0.917-0.625 1.672-1.238 2.336-0.021-0.022-0.041-0.044-0.063-0.066-0.182-0.181-0.372-0.337-0.635-0.352-0.195 0.005-0.334 0.082-0.479 0.209-0.024 0.028-0.049 0.055-0.074 0.084-0.014 0.016-0.029 0.032-0.043 0.048-0.114 0.128-0.202 0.259-0.287 0.407-0.014 0.022-0.027 0.045-0.041 0.068-0.080 0.132-0.142 0.26-0.195 0.405-0.088 0.217-0.179 0.435-0.403 0.539-0.312 0.115-0.645 0.164-0.972 0.214-0.301 0.048-0.611 0.136-0.839 0.35-0.107 0.149-0.184 0.312-0.169 0.498 0.076 0.382 0.337 0.665 0.585 0.951 0.026 0.030 0.026 0.030 0.052 0.060 0.084 0.097 0.17 0.192 0.261 0.283 0.024 0.025 0.024 0.025 0.049 0.051 0.044 0.046 0.088 0.090 0.133 0.135 0.078 0.109 0.058 0.212 0.046 0.341-0.003 0.040-0.007 0.079-0.010 0.12-0.004 0.045-0.004 0.045-0.009 0.092-0.031 0-0.062 0.001-0.094 0.001-0.295 0.003-0.589 0.006-0.884 0.010-0.151 0.002-0.303 0.003-0.454 0.005-0.146 0.002-0.293 0.003-0.439 0.005-0.056 0.001-0.111 0.001-0.167 0.002-0.849-0.017-0.849-0.017-1.587 0.353-0.085-0.040-0.147-0.080-0.223-0.139-0.243-0.175-0.518-0.188-0.809-0.184-0.052 0-0.052 0-0.106 0.001-0.256 0.004-0.512 0.016-0.767 0.034-0.033 0.002-0.065 0.004-0.099 0.007-0.385 0.031-0.742 0.112-1.002 0.417-0.213 0.31-0.305 0.722-0.4 1.082-0.010 0-0.021 0-0.031 0-0.002-0.027-0.004-0.054-0.007-0.082-0.008-0.101-0.017-0.202-0.027-0.304-0.004-0.044-0.008-0.087-0.011-0.131-0.030-0.37-0.1-0.676-0.362-0.953-0.428-0.355-1.019-0.27-1.535-0.225-0.026 0.002-0.052 0.004-0.080 0.007-0.435 0.043-0.737 0.193-1.019 0.529-0.047 0.056-0.095 0.107-0.148 0.158-0.146-0.181-0.25-0.368-0.338-0.582-0.009-0.022-0.018-0.044-0.027-0.067-0.112-0.282-0.202-0.594-0.112-0.895 0.076-0.165 0.174-0.267 0.346-0.333 0.361-0.104 0.713 0.005 1.063 0.1 0.182 0.049 0.365 0.095 0.547 0.141 0.064 0.016 0.129 0.033 0.193 0.049 0.32 0.082 0.646 0.161 0.979 0.153 0.031-0.001 0.062-0.001 0.094-0.002 0.022-0.001 0.045-0.001 0.068-0.002 0.032-0.095 0.032-0.095 0-0.188-0.088-0.012-0.175-0.021-0.264-0.027-0.305-0.028-0.595-0.086-0.893-0.16-0.044-0.011-0.044-0.011-0.090-0.022-0.096-0.024-0.193-0.048-0.289-0.072-0.032-0.008-0.064-0.016-0.097-0.024-0.139-0.035-0.277-0.070-0.414-0.109-0.341-0.097-0.735-0.173-1.071-0.019-0.207 0.125-0.333 0.303-0.404 0.535-0.037 0.329 0.033 0.613 0.115 0.93 0.010 0.042 0.021 0.083 0.031 0.125-0.015 0.009-0.029 0.018-0.045 0.028-0.196 0.141-0.229 0.304-0.268 0.535-0.031-0.027-0.062-0.054-0.094-0.082-0.042-0.035-0.083-0.070-0.125-0.105-0.020-0.016-0.039-0.033-0.059-0.050-0.119-0.095-0.21-0.144-0.357-0.183-0.105-0.040-0.138-0.062-0.187-0.165-0.223-0.944-0.024-2.152 0.478-2.978 0.129-0.183 0.276-0.351 0.5-0.406 0.501-0.068 0.897 0.151 1.333 0.365 0.176 0.084 0.35 0.144 0.538 0.195 0.225 0.062 0.428 0.143 0.637 0.248 1.137 0.566 2.404 0.716 3.658 0.699 0.085-0.001 0.169-0.001 0.254-0.002 0.204-0.001 0.407-0.003 0.611-0.006 0.010-0.062 0.021-0.124 0.031-0.187-0.041 0-0.081 0.001-0.123 0.002-1.871 0.021-3.973-0.070-5.408-1.439-0.029-0.025-0.029-0.025-0.058-0.051-0.28-0.256-0.478-0.624-0.598-0.98-0.010-0.030-0.020-0.059-0.030-0.089-0.131-0.464-0.097-0.964 0.034-1.422 0.048-0.199 0.023-0.365-0.017-0.561-0.173-0.882-0.16-1.872 0.076-2.74 0.012-0.043 0.012-0.043 0.023-0.087 0.221-0.79 0.62-1.498 1.133-2.132 0.021-0.026 0.021-0.026 0.042-0.052 0.415-0.509 0.889-0.919 1.427-1.292 0.032-0.024 0.064-0.048 0.096-0.073 0.108-0.061 0.142-0.059 0.259-0.028 0.237 0.051 0.466 0.045 0.707 0.039 0-0.052 0-0.103 0-0.156-0.026-0-0.052-0.001-0.078-0.001-0.389-0.016-0.85-0.092-1.141-0.374-0.14-0.168-0.219-0.329-0.204-0.551 0.048-0.222 0.207-0.388 0.391-0.512 0.375-0.199 0.788-0.212 1.193-0.096 0.037 0.011 0.073 0.022 0.111 0.034 0.097 0.029 0.189 0.050 0.29 0.062 0.010-0.010 0.021-0.021 0.031-0.031-0.011-0.129-0.037-0.238-0.080-0.359-0.078-0.253-0.105-0.556 0.020-0.797 0.044-0.065 0.044-0.065 0.092-0.125 0.015-0.019 0.030-0.039 0.046-0.059 0.517-0.584 1.343-0.419 1.923-0.035z"></path>
      <path fill="#df5812" style="fill: var(--color10, #df5812)" d="M16.272 10.252c0.372 0.199 0.698 0.343 1.12 0.396 0.197 0.029 0.326 0.094 0.462 0.245 0.091 0.132 0.107 0.263 0.084 0.42-0.056 0.16-0.12 0.282-0.25 0.393-0.086 0.041-0.156 0.065-0.25 0.076 0.001 0.035 0.003 0.069 0.004 0.105-0 0.159-0.033 0.305-0.071 0.459-0.011 0.043-0.011 0.043-0.021 0.087-0.181 0.716-0.529 1.268-1.162 1.661-0.024 0.015-0.048 0.030-0.072 0.046-0.605 0.34-1.393 0.408-2.062 0.251-0.249-0.082-0.481-0.201-0.709-0.328-0.031-0.017-0.062-0.034-0.094-0.052-0.316-0.187-0.585-0.438-0.799-0.735-0.092-0.119-0.092-0.119-0.228-0.173-0.064-0.003-0.128-0.004-0.192-0.004-0.176-0.009-0.329-0.091-0.459-0.208-0.126-0.142-0.147-0.261-0.143-0.448 0.022-0.176 0.105-0.304 0.243-0.413 0.104-0.072 0.213-0.132 0.324-0.193 0.341-0.196 0.557-0.492 0.785-0.805 0.442-0.59 1.011-1.089 1.763-1.211 0.647-0.061 1.169 0.132 1.727 0.432z"></path>
      <path fill="#f68021" style="fill: var(--color11, #f68021)" d="M14.9 10.047c0.027-0.001 0.055-0.002 0.083-0.003 0.412-0 0.776 0.184 1.13 0.378 0.402 0.22 0.777 0.393 1.237 0.453 0.122 0.017 0.179 0.029 0.285 0.096 0.073 0.127 0.085 0.23 0.053 0.373-0.054 0.096-0.119 0.169-0.219 0.219-0.287 0.021-0.538-0.013-0.812-0.094-0.309-0.084-0.309-0.084-0.625-0.125-0.034-0.002-0.068-0.005-0.103-0.007-0.976-0.036-1.845 0.477-2.587 1.062-0.394 0.305-0.834 0.523-1.341 0.477-0.134-0.039-0.223-0.093-0.312-0.199-0.040-0.105-0.053-0.158-0.031-0.27 0.124-0.214 0.315-0.309 0.529-0.418 0.29-0.153 0.464-0.42 0.658-0.676 0.421-0.552 0.894-1.080 1.605-1.235 0.151-0.020 0.3-0.027 0.452-0.030z"></path>
     <path fill="#030201" style="fill: var(--color12, #030201)" d="M11.332 9.478c0.351 0.251 0.55 0.634 0.637 1.053 0.047 0.385-0.056 0.813-0.29 1.126-0.252 0.286-0.536 0.475-0.923 0.509-0.443 0.004-0.766-0.105-1.099-0.411-0.335-0.354-0.429-0.777-0.417-1.249 0.021-0.39 0.223-0.714 0.499-0.98 0.476-0.377 1.093-0.372 1.593-0.049z"></path>
      <path fill="#040301" style="fill: var(--color13, #040301)" d="M18.219 7.906c0.327 0.207 0.545 0.505 0.656 0.875 0.080 0.403 0.040 0.798-0.18 1.152-0.168 0.23-0.392 0.419-0.672 0.491-0.31 0.047-0.621 0.046-0.898-0.112-0.026-0.015-0.053-0.030-0.080-0.045-0.329-0.207-0.531-0.527-0.626-0.9-0.066-0.428-0.019-0.8 0.233-1.16 0.032-0.039 0.064-0.076 0.098-0.113 0.015-0.017 0.030-0.034 0.046-0.051 0.39-0.38 0.965-0.378 1.422-0.136z"></path>
      <path fill="#b90f06" style="fill: var(--color14, #b90f06)" d="M16.656 11.688c-0.043 0.45-0.256 0.902-0.586 1.215-0.323 0.26-0.723 0.391-1.133 0.41-0.037 0.002-0.073 0.005-0.111 0.007-0.602 0.022-1.148-0.2-1.639-0.538 0.737-0.784 2.394-1.72 3.469-1.094z"></path>
      <path fill="#fafaf9" style="fill: var(--color15, #fafaf9)" d="M10.938 9.656c0.1 0.040 0.143 0.079 0.213 0.16 0.052 0.126 0.055 0.237 0.037 0.371-0.046 0.101-0.102 0.179-0.188 0.25-0.127 0.043-0.242 0.051-0.375 0.031-0.105-0.053-0.17-0.128-0.23-0.229-0.027-0.115-0.045-0.218-0.020-0.334 0.148-0.237 0.292-0.273 0.563-0.25z"></path>
      <path fill="#f9f9f9" style="fill: var(--color16, #f9f9f9)" d="M17.711 8.162c0.183 0.148 0.183 0.148 0.207 0.279 0.008 0.169-0.021 0.274-0.137 0.403-0.136 0.091-0.244 0.119-0.406 0.094-0.102-0.066-0.195-0.14-0.25-0.25-0.016-0.16-0.026-0.298 0.055-0.439 0.16-0.138 0.333-0.171 0.531-0.086z"></path>
    </symbol>
    <symbol id="icon-google-play" viewBox="0 0 32 32">
      <path fill="#ea4335" style="fill: var(--color1, #ea4335)" d="M1.619 29.344c0.544 1.938 2.556 3.063 4.494 2.513 0.294-0.081 0.575-0.2 0.838-0.356l15.106-8.6-6.919-6.894-13.519 13.337z"></path>
      <path fill="#fbbc04" style="fill: var(--color2, #fbbc04)" d="M14.737 15.6l7.319 7.306 6.537-3.719c1.737-0.912 2.406-3.056 1.5-4.794-0.337-0.637-0.894-1.1-1.5-1.5l-6.513-3.744z"></path>
      <path fill="#4285f4" style="fill: var(--color3, #4285f4)" d="M1.5 3.581v24.844c0 0.312 0.044 0.619 0.119 0.919l13.519-13.344-13.519-13.35c-0.081 0.3-0.119 0.619-0.119 0.931z"></path>
      <path fill="#34a853" style="fill: var(--color4, #34a853)" d="M15.137 16.006l6.944-6.85-15.081-8.644c-0.569-0.338-1.213-0.512-1.869-0.512-1.631-0.006-3.069 1.081-3.513 2.65l13.519 13.356z"></path>
    </symbol>
    <symbol id="icon-menu-burger" viewBox="0 0 24 24" fill="none">
      <path stroke-width="1.5" stroke="#f5f5f5" stroke-linecap="round" d="M3 6.001h18M3 12.001h18M3 18.001h18" />
    </symbol>
    <symbol id="icon-close" viewBox="0 0 32 32">
      <path fill="#f5f5f5" style="fill: var(--color1, #f5f5f5)" d="M7.28 6.959c0.188-0.187 0.442-0.292 0.707-0.292s0.519 0.105 0.707 0.292l16 16c0.098 0.092 0.177 0.202 0.232 0.325s0.084 0.255 0.086 0.389c0.002 0.134-0.022 0.268-0.073 0.392s-0.125 0.238-0.22 0.333c-0.095 0.095-0.208 0.17-0.333 0.22s-0.258 0.075-0.392 0.073c-0.134-0.002-0.267-0.032-0.389-0.086s-0.233-0.133-0.325-0.232l-16-16c-0.187-0.188-0.292-0.442-0.292-0.707s0.105-0.519 0.292-0.707z"></path>
      <path fill="#f5f5f5" style="fill: var(--color1, #f5f5f5)" d="M24.694 6.959c0.187 0.188 0.292 0.442 0.292 0.707s-0.105 0.519-0.292 0.707l-16 16c-0.19 0.177-0.44 0.273-0.699 0.268s-0.506-0.109-0.689-0.293c-0.183-0.183-0.288-0.43-0.293-0.689s0.092-0.51 0.268-0.699l16-16c0.187-0.187 0.442-0.292 0.707-0.292s0.519 0.105 0.707 0.292z"></path>
    </symbol>
  </defs>
</svg>